<?xml version="1.0" standalone="no"?>
<!DOCTYPE svg PUBLIC "-//W3C//DTD SVG 20010904//EN"
 "http://www.w3.org/TR/2001/REC-SVG-20010904/DTD/svg10.dtd">
<svg version="1.0" xmlns="http://www.w3.org/2000/svg"
 width="141.000000pt" height="141.000000pt" viewBox="0 0 141.000000 141.000000"
 preserveAspectRatio="xMidYMid meet">
<metadata>
Created by potrace 1.14, written by Peter Selinger 2001-2017
</metadata>
<g transform="translate(0.000000,141.000000) scale(0.100000,-0.100000)"
fill="#000000" stroke="none">
<path d="M200 1220 l-45 -5 0 -205 0 -205 -77 -3 -77 -3 0 -72 c1 -110 0 -109
75 -106 35 1 67 -1 71 -5 5 -4 8 -103 8 -219 l0 -212 249 0 250 0 16 55 c174
572 244 796 251 801 7 4 128 4 149 0 3 -1 5 -154 5 -341 l0 -340 -65 -1 c-36
0 -83 -1 -105 -2 l-40 -2 -2 -87 -1 -88 194 0 c178 0 194 1 195 18 0 9 1 108
1 220 l1 202 41 1 c22 0 57 1 76 2 l34 2 1 75 c1 41 0 81 -3 88 -3 8 -28 12
-76 12 l-72 0 -1 205 c0 113 -2 208 -5 211 -5 4 -301 8 -424 5 l-50 -1 -52
-172 c-29 -95 -54 -180 -57 -188 -2 -8 -24 -82 -50 -165 -25 -82 -58 -188 -71
-235 -14 -47 -28 -88 -32 -92 -6 -6 -88 -11 -154 -9 l-28 1 0 340 c0 265 3
340 13 341 6 1 52 2 100 3 58 1 90 5 95 13 8 13 5 153 -3 162 -7 6 -280 7
-335 1z"/>
</g>
</svg>
