<svg xmlns="http://www.w3.org/2000/svg" viewBox="0 0 16 11.89"><defs><style>.cls-1{fill:#3d3b38;}.cls-2{fill:#f7ba0f;}</style></defs><g id="Warstwa_2" data-name="Warstwa 2"><g id="Warstwa_1-2" data-name="Warstwa 1"><path class="cls-1" d="M14.19,11.88H9.92c-.05,0-.08,0-.08-.06V10a.07.07,0,0,1,.08-.08h2.36V2H9.92c-.05,0-.08,0-.08-.06V.07s0-.07.08-.07h4.27a.06.06,0,0,1,.07.07V4.81h1.66a.07.07,0,0,1,.08.07V6.75s0,.06-.08.06H14.26v5S14.23,11.88,14.19,11.88Z"/><path class="cls-1" d="M6.08,11.88H1.81s-.07,0-.07-.06v-5H.08S0,6.79,0,6.75V4.88a.07.07,0,0,1,.08-.07H1.74V.07A.06.06,0,0,1,1.81,0H6.08s.08,0,.08.07V1.93s0,.06-.08.06H3.72V9.88H6.08a.07.07,0,0,1,.08.08v1.86S6.13,11.88,6.08,11.88Z"/><polygon class="cls-2" points="7.4 11.89 5.23 11.89 8.86 0 11.03 0 7.4 11.89"/></g></g></svg>