<svg xmlns="http://www.w3.org/2000/svg" viewBox="0 0 16.25 12.13"><defs><style>.cls-1,.cls-2{fill:#3d3b38;stroke-miterlimit:10;stroke-width:0.25px;}.cls-1{stroke:#ccc;}.cls-2{stroke:#e6e6e6;}.cls-3{fill:#f7ba0f;}</style></defs><g id="Warstwa_2" data-name="Warstwa 2"><g id="Warstwa_1-2" data-name="Warstwa 1"><path class="cls-1" d="M14.32,12H10.05C10,12,10,12,10,11.94V10.08c0-.05,0-.07.09-.07h2.36V2.12H10.05c-.06,0-.09,0-.09-.07V.19s0-.07.09-.07h4.27s.06,0,.06.07V4.94H16c.06,0,.08,0,.08.06V6.87s0,.07-.08.07H14.38v5C14.38,12,14.36,12,14.32,12Z"/><path class="cls-2" d="M6.2,12H1.93s-.06,0-.06-.07v-5H.21c-.06,0-.09,0-.09-.07V5s0-.06.09-.06H1.87V.19s0-.07.06-.07H6.2c.06,0,.09,0,.09.07V2.05c0,.05,0,.07-.09.07H3.84V10H6.2c.06,0,.09,0,.09.07v1.86C6.29,12,6.26,12,6.2,12Z"/><polygon class="cls-3" points="7.53 12.01 5.35 12.01 8.98 0.12 11.16 0.12 7.53 12.01"/></g></g></svg>