<svg width="16" height="12" viewBox="0 0 16 16" fill="none" xmlns="http://www.w3.org/2000/svg">
<path d="M14.19 11.88H9.92C9.87 11.88 9.84 11.88 9.84 11.82V10C9.83829 9.9891 9.83918 9.97796 9.8426 9.96747C9.84601 9.95698 9.85186 9.94745 9.85966 9.93966C9.86746 9.93186 9.87699 9.92601 9.88747 9.9226C9.89796 9.91918 9.9091 9.91829 9.92 9.92H12.28V2H9.92C9.87 2 9.84 2 9.84 1.94V0.0699985C9.84 0.0699985 9.84 -1.49163e-06 9.92 -1.49163e-06H14.19C14.1996 -0.00179222 14.2095 -0.00122077 14.2188 0.00166341C14.2281 0.00454758 14.2366 0.00965759 14.2434 0.0165513C14.2503 0.0234449 14.2555 0.0319146 14.2583 0.0412273C14.2612 0.05054 14.2618 0.0604153 14.26 0.0699985V4.81H15.92C15.93 4.80856 15.9402 4.80929 15.9499 4.81216C15.9596 4.81502 15.9685 4.81995 15.9761 4.8266C15.9837 4.83325 15.9898 4.84146 15.9939 4.85068C15.998 4.8599 16.0001 4.8699 16 4.88V6.75C16 6.75 16 6.81 15.92 6.81H14.26V11.81C14.26 11.81 14.23 11.88 14.19 11.88Z M6.08 11.88H1.81C1.81 11.88 1.74 11.88 1.74 11.82V6.82H0.0799999C0.0799999 6.82 -1.26727e-07 6.79 -1.26727e-07 6.75V4.88C-0.000103781 4.8699 0.00197866 4.8599 0.00610427 4.85068C0.0102299 4.84146 0.016301 4.83325 0.0239009 4.8266C0.0315008 4.81995 0.0404495 4.81502 0.0501329 4.81216C0.0598163 4.80929 0.070005 4.80856 0.0799999 4.81H1.74V0.0699985C1.73821 0.0604153 1.73878 0.05054 1.74166 0.0412273C1.74455 0.0319146 1.74966 0.0234449 1.75655 0.0165513C1.76345 0.00965759 1.77192 0.00454758 1.78123 0.00166341C1.79054 -0.00122077 1.80042 -0.00179222 1.81 -1.49163e-06H6.08C6.08 -1.49163e-06 6.16 -1.49012e-06 6.16 0.0699985V1.93C6.16 1.93 6.16 1.99 6.08 1.99H3.72V9.88H6.08C6.0909 9.87829 6.10204 9.87918 6.11253 9.8826C6.12301 9.88601 6.13254 9.89186 6.14034 9.89966C6.14814 9.90745 6.15399 9.91698 6.1574 9.92747C6.16082 9.93796 6.16171 9.9491 6.16 9.96V11.82C6.16 11.82 6.13 11.88 6.08 11.88Z M7.4 11.89H5.23L8.86 0H11.03L7.4 11.89Z" fill="#000000"/>
</svg>