<svg width="130" height="33" viewBox="0 0 130 33" fill="none" xmlns="http://www.w3.org/2000/svg">
<path d="M44.0744 3.02011V0.231094H52.2741V3.02011H49.8198V15.3874H46.5367V3.02011H44.0744Z" fill="#3D3B38"/>
<path d="M57.0553 9.44281V15.3874H53.7722V0.231094H57.0553V6.60599H59.6531V0.231094H62.9521V15.3715H59.6531V9.44281H57.0553Z" fill="#3D3B38"/>
<path d="M68.5301 0.231094V15.3715H65.2789V0.231094H68.5301Z" fill="#3D3B38"/>
<path d="M79.3993 4.2154H76.2836V3.02011C76.2848 2.89883 76.2391 2.78178 76.1561 2.69339C76.1166 2.64771 76.0676 2.6112 76.0125 2.58642C75.9575 2.56165 75.8977 2.5492 75.8373 2.54996H74.5544C74.494 2.5492 74.4342 2.56165 74.3791 2.58642C74.3241 2.6112 74.2751 2.64771 74.2356 2.69339C74.1526 2.78178 74.1069 2.89883 74.1081 3.02011V5.7135C74.1062 5.77374 74.1165 5.83375 74.1384 5.8899C74.1603 5.94606 74.1934 5.99719 74.2356 6.04021C74.2751 6.0859 74.3241 6.12241 74.3791 6.14718C74.4342 6.17196 74.494 6.1844 74.5544 6.18365H76.6581C78.5918 6.21552 79.5613 7.24613 79.5666 9.27547V12.5346C79.5666 14.5905 78.5945 15.6265 76.6581 15.6265H73.893C71.9566 15.6265 70.9924 14.5905 70.9924 12.5346V10.9409H74.1081V12.6223C74.1057 12.7462 74.1514 12.8661 74.2356 12.957C74.2765 13.0004 74.3259 13.0349 74.3808 13.0582C74.4356 13.0815 74.4947 13.0932 74.5544 13.0924H76.0047C76.0643 13.0932 76.1234 13.0815 76.1783 13.0582C76.2331 13.0349 76.2826 13.0004 76.3234 12.957C76.4043 12.8641 76.4495 12.7455 76.4509 12.6223V9.6739C76.4498 9.55307 76.4044 9.43683 76.3234 9.34719C76.2839 9.3015 76.2349 9.26499 76.1799 9.24022C76.1248 9.21544 76.065 9.20299 76.0047 9.20375H73.893C71.9539 9.20375 70.9871 8.17314 70.9924 6.11193V3.09182C70.9924 1.03061 71.9593 0 73.893 0H76.4987C78.4377 0 79.4046 1.03061 79.3993 3.09182V4.2154Z" fill="#3D3B38"/>
<path d="M81.9333 13.9371C81.9275 13.7144 81.9685 13.493 82.0536 13.2871C82.1387 13.0812 82.266 12.8955 82.4274 12.7418C82.5837 12.5838 82.7699 12.4583 82.975 12.3727C83.1802 12.287 83.4003 12.2429 83.6227 12.2429C83.845 12.2429 84.0651 12.287 84.2703 12.3727C84.4754 12.4583 84.6616 12.5838 84.818 12.7418C84.975 12.8987 85.0997 13.085 85.1847 13.2901C85.2697 13.4952 85.3135 13.7151 85.3135 13.9371C85.3135 14.1591 85.2697 14.379 85.1847 14.5841C85.0997 14.7892 84.975 14.9755 84.818 15.1324C84.6616 15.2904 84.4754 15.4159 84.2703 15.5015C84.0651 15.5872 83.845 15.6313 83.6227 15.6313C83.4003 15.6313 83.1802 15.5872 82.975 15.5015C82.7699 15.4159 82.5837 15.2904 82.4274 15.1324C82.266 14.9788 82.1387 14.793 82.0536 14.5871C81.9685 14.3812 81.9275 14.1598 81.9333 13.9371Z" fill="#3D3B38"/>
<path d="M59.167 29.699V27.3563H62.2827V29.3245C62.2827 31.391 61.3158 32.4216 59.3821 32.4163H56.4258C54.4867 32.4163 53.5199 31.3857 53.5252 29.3245V19.9215C53.5252 17.8603 54.492 16.8297 56.4258 16.8297H59.3821C61.3212 16.8297 62.288 17.8603 62.2827 19.9215V21.3479H59.167V19.4912C59.1689 19.431 59.1586 19.371 59.1367 19.3148C59.1148 19.2587 59.0817 19.2075 59.0395 19.1645C59 19.1188 58.951 19.0823 58.896 19.0576C58.8409 19.0328 58.7811 19.0203 58.7207 19.0211H57.2465C57.1862 19.0203 57.1264 19.0328 57.0713 19.0576C57.0162 19.0823 56.9673 19.1188 56.9278 19.1645C56.8454 19.2533 56.7999 19.3701 56.8003 19.4912V29.699C56.8016 29.8222 56.8468 29.9409 56.9278 30.0337C56.9686 30.0771 57.0181 30.1116 57.0729 30.1349C57.1278 30.1583 57.1869 30.1699 57.2465 30.1692H58.7207C58.7803 30.1699 58.8395 30.1583 58.8943 30.1349C58.9492 30.1116 58.9986 30.0771 59.0395 30.0337C59.1237 29.9429 59.1694 29.8229 59.167 29.699V29.699Z" fill="#F7BA0F"/>
<path d="M69.6616 17.0289H72.9447V29.3245C72.9447 31.391 71.9752 32.4216 70.0362 32.4163H67.1356C65.1966 32.4163 64.227 31.3857 64.227 29.3245V17.0289H67.5101V29.6114C67.5089 29.7326 67.5546 29.8497 67.6376 29.9381C67.6775 29.9828 67.7267 30.0181 67.7818 30.0415C67.8369 30.0649 67.8965 30.0758 67.9564 30.0736H69.2154C69.2752 30.0758 69.3348 30.0649 69.3899 30.0415C69.445 30.0181 69.4943 29.9828 69.5341 29.9381C69.6172 29.8497 69.6629 29.7326 69.6616 29.6114V17.0289Z" fill="#F7BA0F"/>
<path d="M78.467 25.9777V32.1852H75.1919V17.0449H81.0249C82.9586 17.0449 83.9255 18.0755 83.9255 20.1367V21.8978C83.9255 23.1409 83.4872 23.9377 82.5947 24.2883C82.9773 24.4304 83.3009 24.6971 83.5134 25.0455C83.7259 25.3939 83.8149 25.8036 83.7661 26.2088V32.2091H80.483V26.4717C80.483 26.161 80.3396 26.0016 80.0368 26.0016L78.467 25.9777ZM78.467 19.2522V23.6827H80.2041C80.2645 23.6835 80.3243 23.671 80.3794 23.6463C80.4344 23.6215 80.4834 23.585 80.5229 23.5393C80.6052 23.4505 80.6508 23.3337 80.6504 23.2126V19.7223C80.6492 19.6015 80.6039 19.4853 80.5229 19.3956C80.4834 19.3499 80.4344 19.3134 80.3794 19.2886C80.3243 19.2639 80.2645 19.2514 80.2041 19.2522H78.467Z" fill="#F7BA0F"/>
<path d="M94.444 21.0132H91.3283V19.818C91.3302 19.7577 91.3199 19.6977 91.298 19.6415C91.2761 19.5854 91.243 19.5343 91.2008 19.4912C91.1613 19.4455 91.1124 19.409 91.0573 19.3843C91.0022 19.3595 90.9424 19.347 90.8821 19.3478H89.5991C89.5387 19.347 89.4789 19.3595 89.4239 19.3843C89.3688 19.409 89.3198 19.4455 89.2804 19.4912C89.2382 19.5343 89.2051 19.5854 89.1832 19.6415C89.1613 19.6977 89.151 19.7577 89.1529 19.818V22.5113C89.1514 22.5715 89.1619 22.6314 89.1838 22.6875C89.2057 22.7436 89.2385 22.7948 89.2804 22.8381C89.3198 22.8837 89.3688 22.9203 89.4239 22.945C89.4789 22.9698 89.5387 22.9822 89.5991 22.9815H91.7028C93.6419 23.0134 94.6114 24.044 94.6114 26.0733V29.3245C94.6114 31.391 93.6419 32.4216 91.7028 32.4163H88.9377C87.004 32.4163 86.0371 31.3857 86.0371 29.3245V27.7308H89.1529V29.4839C89.1514 29.5441 89.1619 29.604 89.1838 29.66C89.2057 29.7161 89.2385 29.7673 89.2804 29.8106C89.3198 29.8563 89.3688 29.8928 89.4239 29.9176C89.4789 29.9423 89.5387 29.9548 89.5991 29.954H91.0494C91.1098 29.9548 91.1696 29.9423 91.2246 29.9176C91.2797 29.8928 91.3287 29.8563 91.3682 29.8106C91.4492 29.7209 91.4945 29.6047 91.4956 29.4839V26.4717C91.4961 26.3506 91.4505 26.2339 91.3682 26.145C91.3287 26.0993 91.2797 26.0628 91.2246 26.0381C91.1696 26.0133 91.1098 26.0008 91.0494 26.0016H88.9377C87.004 26.0016 86.0371 24.971 86.0371 22.9098V19.9215C86.0371 17.8603 87.004 16.8297 88.9377 16.8297H91.5435C93.4825 16.8297 94.4493 17.8603 94.444 19.9215V21.0132Z" fill="#F7BA0F"/>
<path d="M100.046 17.0289V32.1693H96.7629V17.0289H100.046Z" fill="#F7BA0F"/>
<path d="M108.596 17.0289H111.784L108.644 32.1693H104.867L101.735 17.0289H104.923L106.779 28.0894L108.596 17.0289Z" fill="#F7BA0F"/>
<path d="M116.653 29.4839H120.326V32.2012H113.409V17.0608H120.326V19.7303H116.692V23.2923H120.087V25.8661H116.692L116.653 29.4839Z" fill="#F7BA0F"/>
<path d="M127.665 32.2888H122.143C122.071 32.2888 122.031 32.2888 122.031 32.2012V29.8106C122.031 29.7468 122.071 29.715 122.143 29.715H125.195V19.4912H122.143C122.071 19.4912 122.031 19.4912 122.031 19.4036V17.013C122.031 16.9572 122.071 16.9253 122.143 16.9253H127.665C127.677 16.9241 127.689 16.9255 127.7 16.9295C127.711 16.9334 127.722 16.9398 127.73 16.9482C127.738 16.9566 127.745 16.9668 127.749 16.978C127.753 16.9892 127.754 17.0012 127.753 17.013V23.109H129.888C129.96 23.109 130 23.109 130 23.1966V25.5872C130 25.643 129.96 25.6749 129.888 25.6749H127.745V32.1454C127.754 32.1506 127.763 32.1577 127.769 32.1661C127.776 32.1745 127.781 32.1842 127.784 32.1946C127.787 32.2049 127.788 32.2158 127.787 32.2265C127.785 32.2372 127.782 32.2475 127.777 32.257C127.772 32.2664 127.764 32.2747 127.756 32.2814C127.748 32.2881 127.738 32.293 127.728 32.296C127.717 32.299 127.706 32.2999 127.696 32.2986C127.685 32.2974 127.675 32.2941 127.665 32.2888V32.2888Z" fill="#3D3B38"/>
<path d="M52.1944 32.2888H46.6722C46.6604 32.2901 46.6484 32.2887 46.6372 32.2847C46.626 32.2808 46.6158 32.2743 46.6074 32.2659C46.599 32.2575 46.5926 32.2473 46.5886 32.2361C46.5847 32.2249 46.5833 32.213 46.5845 32.2012V25.7307H44.441C44.3693 25.7307 44.3294 25.7307 44.3294 25.643V23.2524C44.3294 23.1887 44.3294 23.1648 44.441 23.1648H46.5845V16.9971C46.5833 16.9852 46.5847 16.9733 46.5886 16.9621C46.5926 16.9509 46.599 16.9407 46.6074 16.9323C46.6158 16.9239 46.626 16.9175 46.6372 16.9135C46.6484 16.9095 46.6604 16.9081 46.6722 16.9094H52.1944C52.2662 16.9094 52.306 16.9094 52.306 16.9971V19.3876C52.306 19.4434 52.306 19.4753 52.1944 19.4753H49.1425V29.699H52.1944C52.2662 29.699 52.306 29.699 52.306 29.7946V32.1852C52.306 32.257 52.2662 32.2888 52.1944 32.2888Z" fill="#3D3B38"/>
<path d="M37.9944 32.2729H26.5594C26.408 32.2729 26.3363 32.2171 26.3363 32.0976V27.0933C26.3363 26.9658 26.408 26.8941 26.5594 26.8941H32.8785V5.80115H26.5594C26.408 5.80115 26.3363 5.73741 26.3363 5.61788V0.64546C26.3363 0.525931 26.408 0.462182 26.5594 0.462182H37.9944C38.0188 0.459425 38.0435 0.462341 38.0665 0.470702C38.0896 0.479064 38.1105 0.492644 38.1274 0.510385C38.1444 0.528125 38.157 0.549546 38.1644 0.572976C38.1717 0.596406 38.1735 0.621213 38.1697 0.64546V13.3474H42.6162C42.7596 13.3474 42.8393 13.4032 42.8393 13.5227V18.527C42.8393 18.6466 42.7596 18.7023 42.6162 18.7023H38.1697V32.0976C38.1722 32.1212 38.1694 32.1451 38.1614 32.1675C38.1535 32.1899 38.1407 32.2103 38.1239 32.2271C38.1071 32.2439 38.0867 32.2568 38.0643 32.2647C38.0419 32.2726 38.018 32.2754 37.9944 32.2729Z" fill="#3D3B38"/>
<path d="M16.2719 32.2729H4.84492C4.82096 32.2771 4.79635 32.2755 4.77315 32.2682C4.74996 32.2608 4.72887 32.248 4.71167 32.2308C4.69447 32.2136 4.68167 32.1925 4.67435 32.1694C4.66703 32.1462 4.6654 32.1215 4.66961 32.0976V18.7023H0.223121C0.0717175 18.7023 0 18.6466 0 18.527V13.5466C0 13.4271 0.0717175 13.3713 0.223121 13.3713H4.66961V0.645459C4.66961 0.52593 4.72539 0.462181 4.84492 0.462181H16.2719C16.4233 0.462181 16.495 0.52593 16.495 0.645459V5.61788C16.495 5.73741 16.4233 5.80115 16.2719 5.80115H9.96077V26.918H16.2719C16.4233 26.918 16.495 26.9897 16.495 27.1172V32.0976C16.495 32.2171 16.4233 32.2729 16.2719 32.2729Z" fill="#3D3B38"/>
<path d="M19.8259 32.2809H13.9929L23.7066 0.462181H29.5397L19.8259 32.2809Z" fill="#F7BA0F"/>
</svg>