<svg xmlns="http://www.w3.org/2000/svg" viewBox="0 0 194.42 112.05"><defs><style>.cls-1{fill:#3d3b38;}.cls-2{fill:#f7ba0f;}</style></defs><g id="Warstwa_2" data-name="Warstwa 2"><g id="Warstwa_1-2" data-name="Warstwa 1"><path class="cls-1" d="M0,45.54V39.23H18.55v6.31H13v28H5.56v-28Z"/><path class="cls-1" d="M29.36,60.06V73.52H21.94V39.23h7.42V53.59h5.89V39.23h7.42V73.52H35.25V60.06Z"/><path class="cls-1" d="M55.38,39.23V73.52H48V39.23Z"/><path class="cls-1" d="M79.92,48.24h-7v-2.7a1.06,1.06,0,0,0-.29-.75.92.92,0,0,0-.71-.31H69a.92.92,0,0,0-.71.31,1.06,1.06,0,0,0-.29.75v6.09a1,1,0,0,0,.29.74.9.9,0,0,0,.71.32h4.77q6.57.11,6.57,7v7.36q0,7-6.57,7H67.47q-6.57,0-6.57-7V63.5H68v3.82a1,1,0,0,0,.29.74.93.93,0,0,0,.71.32h3.29a.93.93,0,0,0,.71-.32,1,1,0,0,0,.3-.74V60.59a1,1,0,0,0-.3-.74.9.9,0,0,0-.71-.32H67.47q-6.57,0-6.57-7V45.7q0-7,6.57-7h5.88q6.57,0,6.57,7Z"/><path class="cls-1" d="M85.65,70.23a3.79,3.79,0,0,1,3.81-3.81,3.71,3.71,0,0,1,2.71,1.11,3.85,3.85,0,0,1,0,5.41,3.71,3.71,0,0,1-2.71,1.11,3.79,3.79,0,0,1-3.81-3.82Z"/><path class="cls-2" d="M34.15,105.9v-5.3h7v4.45q0,7-6.57,7H27.94q-6.57,0-6.57-7V83.7q0-7,6.57-7h6.68q6.57,0,6.57,7v3.23h-7V82.79a1,1,0,0,0-.3-.74.93.93,0,0,0-.71-.32H29.8a1,1,0,0,0-.72.32,1.08,1.08,0,0,0-.29.74V105.9a1.06,1.06,0,0,0,.29.74.93.93,0,0,0,.72.32h3.34a.9.9,0,0,0,.71-.32A1,1,0,0,0,34.15,105.9Z"/><path class="cls-2" d="M57.89,77.23h7.42v27.82q0,7-6.57,7H52.17q-6.59,0-6.58-7V77.23H53v28.46a1.08,1.08,0,0,0,.29.74,1,1,0,0,0,.72.32h2.86a1,1,0,0,0,.72-.32,1.08,1.08,0,0,0,.29-.74Z"/><path class="cls-2" d="M77.82,97.48v14H70.4V77.23H83.59q6.57,0,6.58,7v4q0,4.24-3,5.41,2.64.94,2.64,4.34v13.57H82.38v-13c0-.71-.34-1.06-1-1.06Zm0-15.22v10h3.92a.9.9,0,0,0,.71-.32,1,1,0,0,0,.3-.74v-7.9a1,1,0,0,0-.3-.74.93.93,0,0,0-.71-.32Z"/><path class="cls-2" d="M114,86.24h-7v-2.7a1.06,1.06,0,0,0-.29-.75.92.92,0,0,0-.71-.31H103a.92.92,0,0,0-.71.31,1.07,1.07,0,0,0-.3.75v6.09a1,1,0,0,0,.3.74.9.9,0,0,0,.71.32h4.77q6.57.11,6.57,7v7.36q0,7-6.57,7h-6.25q-6.57,0-6.57-7V101.5h7v3.82a1,1,0,0,0,.3.74.93.93,0,0,0,.71.32h3.29a.93.93,0,0,0,.71-.32,1,1,0,0,0,.29-.74V98.59a1,1,0,0,0-.29-.74.9.9,0,0,0-.71-.32h-4.77q-6.57,0-6.57-7V83.7q0-7,6.57-7h5.88q6.57,0,6.57,7Z"/><path class="cls-2" d="M126.63,77.23v34.29h-7.42V77.23Z"/><path class="cls-2" d="M146,77.23h7.16L146,111.52h-8.54l-7.1-34.29h7.21l4.19,25Z"/><path class="cls-2" d="M164.21,105.37h8.21v6.15H156.79V77.23h15.63v6h-8.21v8.06h7.68v5.83h-7.68Z"/><path class="cls-1" d="M189.12,111.75h-12.5c-.16,0-.24-.06-.24-.19v-5.45q0-.21.24-.21h6.91V82.8h-6.91c-.16,0-.24-.07-.24-.2V77.16c0-.13.08-.2.24-.2h12.5c.13,0,.19.07.19.2V91.05h4.86c.17,0,.25.07.25.2v5.47c0,.13-.08.19-.25.19h-4.86v14.65A.17.17,0,0,1,189.12,111.75Z"/><path class="cls-1" d="M18.37,111.75H5.87a.17.17,0,0,1-.19-.19V96.91H.82c-.16,0-.25-.06-.25-.19V91.25c0-.13.09-.2.25-.2H5.68V77.16c0-.13.06-.2.19-.2h12.5c.16,0,.25.07.25.2V82.6c0,.13-.09.2-.25.2H11.46v23.1h6.91c.16,0,.25.07.25.21v5.45C18.62,111.69,18.53,111.75,18.37,111.75Z"/><path class="cls-1" d="M42.12,34.8H29.62c-.16,0-.24-.07-.24-.2V29.16c0-.15.08-.22.24-.22h6.91V5.84H29.62c-.16,0-.24-.07-.24-.2V.2c0-.13.08-.2.24-.2h12.5c.13,0,.19.07.19.2V14.09h4.86c.17,0,.25.07.25.2v5.47c0,.13-.08.19-.25.19H42.31V34.6C42.31,34.73,42.25,34.8,42.12,34.8Z"/><path class="cls-1" d="M18.37,34.8H5.87c-.13,0-.19-.07-.19-.2V20H.82c-.16,0-.25-.06-.25-.19V14.29c0-.13.09-.2.25-.2H5.68V.2c0-.13.06-.2.19-.2h12.5c.16,0,.25.07.25.2V5.64c0,.13-.09.2-.25.2H11.46v23.1h6.91c.16,0,.25.07.25.22V34.6C18.62,34.73,18.53,34.8,18.37,34.8Z"/><polygon class="cls-2" points="22.25 34.8 15.88 34.8 26.5 0 32.88 0 22.25 34.8"/></g></g></svg>