<svg xmlns="http://www.w3.org/2000/svg" viewBox="0 0 67.53 52.38"><defs><style>.cls-1{fill:#3d3b38;}.cls-2{fill:none;stroke:#f7ba0f;stroke-linecap:round;stroke-miterlimit:10;stroke-width:3px;}</style></defs><g id="Warstwa_2" data-name="Warstwa 2"><g id="Warstwa_1-2" data-name="Warstwa 1"><path class="cls-1" d="M59.55,52.38H40.73c-.24,0-.36-.1-.36-.29v-8.2q0-.33.36-.33H51.14V8.79H40.73q-.36,0-.36-.3V.29c0-.19.12-.29.36-.29H59.55a.26.26,0,0,1,.3.29V21.21h7.31c.25,0,.37.1.37.29v8.24c0,.19-.12.29-.37.29H59.85V52.09A.26.26,0,0,1,59.55,52.38Z"/><path class="cls-1" d="M26.8,52.38H8a.26.26,0,0,1-.3-.29V30H.37c-.25,0-.37-.1-.37-.29V21.5c0-.19.12-.29.37-.29H7.68V.29A.26.26,0,0,1,8,0H26.8c.24,0,.37.1.37.29v8.2c0,.2-.13.3-.37.3H16.39V43.56H26.8c.24,0,.37.11.37.33v8.2C27.17,52.28,27,52.38,26.8,52.38Z"/><polyline class="cls-2" points="24.17 24.7 33.72 15.15 43.27 24.7"/><polyline class="cls-2" points="24.17 36.15 33.72 26.6 43.27 36.15"/></g></g></svg>