<svg xmlns="http://www.w3.org/2000/svg" viewBox="0 0 16 16"><defs><style>.cls-1{fill:#3d3b38;}.cls-2{fill:#f7ba0f;}</style></defs><g id="Warstwa_2" data-name="Warstwa 2"><g id="Warstwa_1-2" data-name="Warstwa 1"><path class="cls-1" d="M14.19,16H9.92c-.05,0-.08,0-.08-.09V13.4c0-.06,0-.1.08-.1h2.36V2.69H9.92c-.05,0-.08,0-.08-.09V.09c0-.06,0-.09.08-.09h4.27s.07,0,.07.09V6.48h1.66c.05,0,.08,0,.08.09V9.08c0,.06,0,.09-.08.09H14.26v6.74C14.26,16,14.23,16,14.19,16Z"/><path class="cls-1" d="M6.08,16H1.81s-.07,0-.07-.09V9.17H.08S0,9.14,0,9.08V6.57c0-.06,0-.09.08-.09H1.74V.09c0-.06,0-.09.07-.09H6.08s.08,0,.08.09V2.6c0,.06,0,.09-.08.09H3.72V13.3H6.08s.08,0,.08.1v2.51C6.16,16,6.13,16,6.08,16Z"/><polygon class="cls-2" points="7.4 16 5.23 16 8.86 0 11.03 0 7.4 16"/></g></g></svg>