<svg xmlns="http://www.w3.org/2000/svg" viewBox="0 0 2533.46 39.97"><defs><style>.cls-1{opacity:0.05;}.cls-2{fill:#3d3b38;}</style></defs><g id="Warstwa_2" data-name="Warstwa 2"><g id="Warstwa_1-2" data-name="Warstwa 1"><g class="cls-1"><path class="cls-2" d="M53.87,30.72l-7.81,7.81c-.1.1-.2.11-.29,0L41.93,34.7a.19.19,0,0,1,0-.31l4.32-4.32L29.93,13.77l-4.31,4.32c-.11.1-.2.1-.29,0l-3.85-3.84a.18.18,0,0,1,0-.29l7.81-7.82c.08-.08.17-.07.26,0L39.38,16l3-3a.18.18,0,0,1,.29,0l3.86,3.86c.1.09.09.19,0,.29l-3,3L53.86,30.46A.16.16,0,0,1,53.87,30.72Z"/></g><g class="cls-1"><path class="cls-2" d="M32.43,29.7l-7.81,7.82c-.08.08-.17.07-.26,0L14,27.16l-3,3a.18.18,0,0,1-.29,0L6.83,26.35a.18.18,0,0,1,0-.29l3-3L.07,13.21a.16.16,0,0,1,0-.26L7.87,5.14c.1-.1.2-.11.29,0L12,9c.1.09.09.19,0,.29L7.67,13.58,24,29.88l4.32-4.31a.19.19,0,0,1,.3,0l3.85,3.84A.18.18,0,0,1,32.43,29.7Z"/></g><g class="cls-1"><path class="cls-2" d="M147,31.53l-7.81,7.81a.18.18,0,0,1-.29,0L135,35.52a.2.2,0,0,1,0-.31l4.32-4.32L123.05,14.58l-4.31,4.32c-.11.1-.2.11-.3,0l-3.84-3.85a.18.18,0,0,1,0-.29L122.43,7a.16.16,0,0,1,.26,0l9.81,9.81,3-3c.1-.1.2-.11.29,0l3.86,3.86c.1.1.09.19,0,.29l-3,3L147,31.27A.16.16,0,0,1,147,31.53Z"/></g><g class="cls-1"><path class="cls-2" d="M125.55,30.52l-7.81,7.81a.16.16,0,0,1-.26,0L107.14,28l-3,3c-.1.1-.2.11-.29,0L100,27.16a.18.18,0,0,1,0-.29l3-3L93.19,14a.16.16,0,0,1,0-.26L101,6a.18.18,0,0,1,.29,0l3.84,3.84c.1.1.09.19,0,.29l-4.32,4.32L117.1,30.7l4.32-4.32a.19.19,0,0,1,.3,0l3.85,3.85C125.66,30.32,125.65,30.42,125.55,30.52Z"/></g><g class="cls-1"><path class="cls-2" d="M100.06,31.07l-7.81,7.81c-.1.1-.2.11-.29,0l-3.85-3.85a.19.19,0,0,1,0-.3l4.32-4.32L76.12,14.12,71.8,18.44c-.1.1-.19.11-.29,0l-3.84-3.84a.18.18,0,0,1,0-.29L75.5,6.51a.16.16,0,0,1,.26,0l9.81,9.81,3-3a.18.18,0,0,1,.29,0l3.86,3.86c.1.09.09.19,0,.29l-3,3L100,30.81A.16.16,0,0,1,100.06,31.07Z"/></g><g class="cls-1"><path class="cls-2" d="M78.62,30.06l-7.81,7.81c-.08.08-.17.07-.26,0L60.21,27.51l-3,3a.18.18,0,0,1-.29,0L53,26.7a.18.18,0,0,1,0-.29l3-3-9.81-9.81c-.09-.09-.1-.17,0-.26l7.81-7.81a.18.18,0,0,1,.29,0l3.84,3.84a.18.18,0,0,1,0,.29l-4.32,4.32L70.17,30.24l4.31-4.32a.2.2,0,0,1,.31,0l3.85,3.85C78.73,29.86,78.72,30,78.62,30.06Z"/></g><g class="cls-1"><path class="cls-2" d="M195.82,30.7,188,38.51a.18.18,0,0,1-.29,0l-3.84-3.84a.19.19,0,0,1,0-.31l4.31-4.32-16.3-16.3-4.32,4.31a.18.18,0,0,1-.29,0l-3.85-3.85c-.09-.09-.08-.18,0-.29l7.81-7.81c.08-.08.17-.07.26,0L181.33,16l3-3a.18.18,0,0,1,.29,0l3.86,3.87c.09.09.08.18,0,.29l-3,3,10.34,10.35C195.9,30.53,195.91,30.61,195.82,30.7Z"/></g><g class="cls-1"><path class="cls-2" d="M174.39,29.68l-7.82,7.81c-.08.08-.16.08-.26,0L156,27.13l-3,3a.18.18,0,0,1-.29,0l-3.86-3.87c-.09-.09-.08-.18,0-.29l3-3L142,13.19a.16.16,0,0,1,0-.26l7.81-7.81c.1-.1.2-.11.29,0L154,9c.09.09.08.19,0,.29l-4.32,4.32,16.31,16.3,4.32-4.32a.19.19,0,0,1,.31,0l3.84,3.84A.18.18,0,0,1,174.39,29.68Z"/></g><g class="cls-1"><path class="cls-2" d="M288.94,31.51l-7.81,7.81c-.1.1-.2.11-.29,0L277,35.49a.19.19,0,0,1,0-.31l4.32-4.31L265,14.56l-4.32,4.32a.18.18,0,0,1-.29,0l-3.85-3.84c-.09-.09-.08-.19,0-.29L264.38,7c.08-.09.17-.08.26,0l9.81,9.81,3-3a.19.19,0,0,1,.3,0l3.86,3.86c.09.09.08.19,0,.29l-3,3,10.34,10.34A.16.16,0,0,1,288.94,31.51Z"/></g><g class="cls-1"><path class="cls-2" d="M267.5,30.5l-7.81,7.81c-.08.08-.17.07-.26,0L249.09,28l-3,3a.18.18,0,0,1-.29,0l-3.86-3.86a.18.18,0,0,1,0-.29l3-3L235.14,14a.16.16,0,0,1,0-.26l7.81-7.81a.18.18,0,0,1,.29,0l3.85,3.84c.09.09.08.19,0,.29l-4.32,4.32,16.31,16.31,4.32-4.32a.2.2,0,0,1,.31,0l3.84,3.85C267.61,30.3,267.61,30.39,267.5,30.5Z"/></g><g class="cls-1"><path class="cls-2" d="M242,31.05l-7.81,7.81c-.1.1-.2.11-.29,0L230.07,35a.19.19,0,0,1,0-.31l4.32-4.32-16.3-16.3-4.32,4.32a.18.18,0,0,1-.29,0l-3.85-3.84a.18.18,0,0,1,0-.29l7.81-7.82c.08-.08.17-.07.26,0l9.81,9.81,3-3c.11-.1.2-.1.29,0l3.87,3.86c.09.09.08.19,0,.29l-3,3L242,30.79A.16.16,0,0,1,242,31.05Z"/></g><g class="cls-1"><path class="cls-2" d="M220.57,30l-7.81,7.82c-.08.08-.17.07-.26,0L202.16,27.49l-3,3a.18.18,0,0,1-.29,0L195,26.68a.18.18,0,0,1,0-.29l3-3-9.81-9.81a.16.16,0,0,1,0-.26L196,5.47c.1-.1.2-.11.29,0l3.84,3.84c.1.09.09.19,0,.29l-4.32,4.32,16.31,16.3,4.32-4.31a.19.19,0,0,1,.3,0l3.85,3.84A.18.18,0,0,1,220.57,30Z"/></g><g class="cls-1"><path class="cls-2" d="M337.84,31.26,330,39.08a.18.18,0,0,1-.29,0l-3.84-3.84a.19.19,0,0,1,0-.31l4.31-4.32-16.3-16.31-4.32,4.32c-.1.1-.2.11-.29,0l-3.85-3.85c-.09-.09-.08-.19,0-.29l7.81-7.81a.16.16,0,0,1,.26,0l9.81,9.8,3-3a.18.18,0,0,1,.29,0l3.86,3.86c.09.1.08.19,0,.3l-3,3L337.83,31C337.92,31.1,337.93,31.18,337.84,31.26Z"/></g><g class="cls-1"><path class="cls-2" d="M316.41,30.25l-7.82,7.81c-.08.08-.16.08-.26,0L298,27.7l-3,3c-.1.1-.19.11-.29,0l-3.86-3.86c-.09-.09-.08-.18,0-.29l3-3-9.8-9.81a.16.16,0,0,1,0-.26l7.81-7.81c.1-.1.2-.11.29,0L296,9.52c.09.09.08.18,0,.29l-4.32,4.31L308,30.43l4.32-4.32a.19.19,0,0,1,.31,0L316.42,30A.18.18,0,0,1,316.41,30.25Z"/></g><g class="cls-1"><path class="cls-2" d="M431,32.08l-7.81,7.81c-.1.1-.2.11-.29,0L419,36.06a.19.19,0,0,1,0-.31l4.32-4.31L407,15.13l-4.32,4.32a.18.18,0,0,1-.29,0l-3.85-3.84c-.09-.09-.08-.19,0-.29l7.81-7.81c.08-.09.17-.08.26,0l9.81,9.81,3-3c.11-.1.2-.1.29,0l3.87,3.86c.09.09.08.19,0,.29l-3,3L431,31.82A.16.16,0,0,1,431,32.08Z"/></g><g class="cls-1"><path class="cls-2" d="M409.52,31.07l-7.81,7.81c-.08.08-.17.07-.26,0L391.11,28.52l-3,3a.18.18,0,0,1-.29,0l-3.86-3.86a.18.18,0,0,1,0-.29l3-3-9.81-9.81a.16.16,0,0,1,0-.26L385,6.5c.1-.1.2-.11.29,0l3.85,3.84c.09.09.08.19,0,.29l-4.32,4.32,16.31,16.31,4.32-4.32a.2.2,0,0,1,.31,0l3.84,3.84C409.63,30.87,409.63,31,409.52,31.07Z"/></g><g class="cls-1"><path class="cls-2" d="M384,31.62l-7.81,7.81c-.1.1-.2.11-.29,0l-3.84-3.84a.19.19,0,0,1,0-.31L376.4,31l-16.31-16.3L355.78,19a.18.18,0,0,1-.29,0l-3.85-3.84a.18.18,0,0,1,0-.29l7.81-7.82c.08-.08.17-.07.26,0l9.81,9.81,3-3c.1-.1.2-.11.29,0l3.87,3.86c.09.09.08.19,0,.29l-3,3L384,31.36A.16.16,0,0,1,384,31.62Z"/></g><g class="cls-1"><path class="cls-2" d="M362.59,30.6l-7.81,7.81c-.08.09-.17.08-.26,0L344.18,28.06l-3,3c-.1.1-.2.11-.29,0L337,27.25a.18.18,0,0,1,0-.29l3-3-9.81-9.81a.16.16,0,0,1,0-.26L338,6c.1-.1.2-.11.29,0l3.84,3.85c.1.09.09.19,0,.29l-4.32,4.32,16.31,16.3,4.32-4.31a.18.18,0,0,1,.3,0l3.85,3.84A.18.18,0,0,1,362.59,30.6Z"/></g><g class="cls-1"><path class="cls-2" d="M478.33,31l-7.82,7.81c-.1.1-.2.11-.29,0L466.38,35a.19.19,0,0,1,0-.31l4.31-4.31-16.3-16.31-4.32,4.32a.18.18,0,0,1-.29,0l-3.85-3.84c-.09-.09-.08-.19,0-.29l7.81-7.82c.08-.08.17-.07.26,0l9.81,9.81,3-3a.18.18,0,0,1,.29,0L471,17.11c.09.09.08.19,0,.29l-3,3,10.34,10.34C478.4,30.87,478.41,31,478.33,31Z"/></g><g class="cls-1"><path class="cls-2" d="M456.89,30l-7.82,7.82c-.08.08-.16.07-.26,0L438.47,27.48l-3,3c-.11.11-.2.11-.3,0l-3.86-3.86c-.09-.09-.08-.19,0-.29l3-3-9.8-9.81a.16.16,0,0,1,0-.26l7.81-7.81c.1-.1.2-.11.29,0l3.85,3.84c.09.09.08.19,0,.29l-4.32,4.32,16.31,16.31,4.32-4.32a.2.2,0,0,1,.31,0l3.84,3.84A.18.18,0,0,1,456.89,30Z"/></g><g class="cls-1"><path class="cls-2" d="M571.44,31.85l-7.81,7.81a.18.18,0,0,1-.29,0l-3.84-3.84a.19.19,0,0,1,0-.31l4.31-4.32L547.51,14.9l-4.32,4.32c-.1.1-.2.11-.29,0l-3.85-3.85c-.09-.09-.08-.19,0-.29l7.81-7.81a.16.16,0,0,1,.26,0L557,17.11l3-3a.18.18,0,0,1,.29,0l3.86,3.86a.18.18,0,0,1,0,.29l-3,3,10.34,10.34C571.52,31.68,571.53,31.77,571.44,31.85Z"/></g><g class="cls-1"><path class="cls-2" d="M550,30.84l-7.82,7.81c-.08.08-.16.08-.26,0L531.59,28.29l-3,3c-.1.1-.19.11-.29,0l-3.86-3.86c-.09-.09-.08-.19,0-.29l3-3-9.8-9.81a.16.16,0,0,1,0-.26l7.81-7.81a.18.18,0,0,1,.29,0l3.85,3.84a.18.18,0,0,1,0,.29l-4.32,4.32L541.55,31l4.32-4.32a.2.2,0,0,1,.31,0L550,30.55A.18.18,0,0,1,550,30.84Z"/></g><g class="cls-1"><path class="cls-2" d="M524.51,31.39,516.7,39.2c-.1.1-.2.11-.29,0l-3.84-3.85a.18.18,0,0,1,0-.3l4.32-4.32-16.3-16.31-4.32,4.32c-.1.1-.2.11-.29,0l-3.85-3.84c-.09-.09-.08-.19,0-.29L500,6.83a.16.16,0,0,1,.26,0L510,16.65l3-3c.11-.1.2-.1.29,0l3.87,3.86c.09.09.08.19,0,.29l-3,3L524.5,31.13A.16.16,0,0,1,524.51,31.39Z"/></g><g class="cls-1"><path class="cls-2" d="M503.07,30.38l-7.81,7.81c-.08.08-.17.07-.26,0L484.66,27.83l-3,3a.18.18,0,0,1-.29,0L477.47,27a.18.18,0,0,1,0-.29l3-3-9.81-9.81a.16.16,0,0,1,0-.26l7.81-7.81a.18.18,0,0,1,.29,0l3.85,3.84c.09.09.08.19,0,.29l-4.32,4.32,16.31,16.31,4.32-4.32a.2.2,0,0,1,.31,0l3.84,3.85A.18.18,0,0,1,503.07,30.38Z"/></g><g class="cls-1"><path class="cls-2" d="M617.81,30.58,610,38.39a.18.18,0,0,1-.29,0l-3.84-3.84a.19.19,0,0,1,0-.31l4.32-4.32-16.3-16.3-4.32,4.31a.18.18,0,0,1-.29,0l-3.85-3.85c-.09-.09-.08-.18,0-.29L593.25,6c.08-.08.17-.07.26,0l9.81,9.81,3-3c.11-.1.2-.11.29,0l3.87,3.86c.09.09.08.19,0,.29l-3,3L617.8,30.32A.16.16,0,0,1,617.81,30.58Z"/></g><g class="cls-1"><path class="cls-2" d="M596.37,29.56l-7.81,7.81c-.08.09-.17.08-.26,0L578,27l-3,3c-.1.1-.2.11-.29,0l-3.86-3.86c-.09-.1-.09-.19,0-.3l3-3L564,13.07a.16.16,0,0,1,0-.26L571.81,5c.1-.1.2-.11.29,0l3.84,3.85c.1.09.09.19,0,.29l-4.32,4.32,16.31,16.3,4.32-4.32a.18.18,0,0,1,.3,0l3.85,3.84A.18.18,0,0,1,596.37,29.56Z"/></g><g class="cls-1"><path class="cls-2" d="M710.93,31.39l-7.81,7.81c-.1.1-.2.11-.29,0L699,35.37a.18.18,0,0,1,0-.3l4.32-4.32L687,14.44l-4.31,4.32c-.11.1-.2.11-.29,0l-3.85-3.84a.18.18,0,0,1,0-.29l7.81-7.81a.16.16,0,0,1,.26,0l9.81,9.81,3-3a.18.18,0,0,1,.29,0l3.86,3.86c.1.09.09.19,0,.29l-3,3,10.35,10.34A.16.16,0,0,1,710.93,31.39Z"/></g><g class="cls-1"><path class="cls-2" d="M689.49,30.38l-7.81,7.81c-.08.08-.17.07-.26,0L671.08,27.83l-3,3a.18.18,0,0,1-.29,0L663.89,27a.18.18,0,0,1,0-.29l3-3-9.81-9.81a.16.16,0,0,1,0-.26l7.81-7.81a.18.18,0,0,1,.29,0l3.84,3.84c.1.09.09.19,0,.29l-4.32,4.32L681,30.56l4.32-4.32a.19.19,0,0,1,.3,0l3.85,3.85C689.6,30.18,689.59,30.28,689.49,30.38Z"/></g><g class="cls-1"><path class="cls-2" d="M664,30.93l-7.81,7.81c-.1.1-.2.11-.29,0l-3.84-3.85a.19.19,0,0,1,0-.31l4.32-4.31L640.06,14l-4.31,4.32c-.11.1-.2.1-.29,0l-3.85-3.84a.18.18,0,0,1,0-.29l7.81-7.82c.08-.08.17-.07.26,0l9.81,9.81,3-3a.18.18,0,0,1,.29,0L656.69,17c.1.09.09.19,0,.29l-3,3L664,30.67A.16.16,0,0,1,664,30.93Z"/></g><g class="cls-1"><path class="cls-2" d="M642.56,29.91l-7.81,7.82c-.08.08-.17.07-.26,0L624.15,27.37l-3,3a.18.18,0,0,1-.29,0L617,26.56a.18.18,0,0,1,0-.29l3-3-9.81-9.81a.16.16,0,0,1,0-.26L618,5.35c.1-.1.2-.11.29,0l3.84,3.84c.1.09.09.19,0,.29l-4.32,4.32L634.11,30.1l4.32-4.32a.19.19,0,0,1,.3,0l3.85,3.84A.18.18,0,0,1,642.56,29.91Z"/></g><g class="cls-1"><path class="cls-2" d="M755.65,29.27l-7.81,7.81a.18.18,0,0,1-.29,0l-3.85-3.85a.19.19,0,0,1,0-.3L748,28.63,731.71,12.32l-4.32,4.32c-.1.1-.19.11-.29,0l-3.84-3.84a.18.18,0,0,1,0-.29l7.82-7.81c.08-.08.16-.08.26,0l9.8,9.81,3-3a.18.18,0,0,1,.29,0l3.86,3.86a.18.18,0,0,1,0,.29l-3,3L755.63,29A.16.16,0,0,1,755.65,29.27Z"/></g><g class="cls-1"><path class="cls-2" d="M734.21,28.26l-7.81,7.81a.16.16,0,0,1-.26,0L715.8,25.71l-3,3a.18.18,0,0,1-.29,0l-3.86-3.86a.18.18,0,0,1,0-.29l3-3-9.81-9.8c-.09-.1-.1-.18,0-.26l7.82-7.82a.18.18,0,0,1,.29,0l3.84,3.84a.18.18,0,0,1,0,.29l-4.32,4.32,16.31,16.31,4.31-4.32a.2.2,0,0,1,.31,0L734.23,28C734.32,28.06,734.31,28.16,734.21,28.26Z"/></g><g class="cls-1"><path class="cls-2" d="M848.77,30.09,841,37.9c-.1.1-.2.11-.29,0l-3.85-3.84a.2.2,0,0,1,0-.31l4.32-4.32-16.31-16.3-4.32,4.31a.18.18,0,0,1-.29,0l-3.84-3.84a.19.19,0,0,1,0-.3l7.82-7.81c.08-.08.16-.07.26,0l9.8,9.81,3-3c.1-.1.2-.11.29,0l3.86,3.86a.18.18,0,0,1,0,.29l-3,3,10.34,10.35A.16.16,0,0,1,848.77,30.09Z"/></g><g class="cls-1"><path class="cls-2" d="M827.33,29.07l-7.81,7.81c-.08.09-.17.08-.26,0L808.92,26.53l-3,3c-.1.1-.2.11-.29,0l-3.86-3.86a.18.18,0,0,1,0-.29l3-3L795,12.58c-.09-.09-.1-.18,0-.26l7.82-7.81a.18.18,0,0,1,.29,0l3.84,3.85a.18.18,0,0,1,0,.29L802.57,13l16.3,16.3,4.32-4.31a.19.19,0,0,1,.31,0l3.84,3.84C827.44,28.87,827.43,29,827.33,29.07Z"/></g><g class="cls-1"><path class="cls-2" d="M801.84,29.62,794,37.44c-.11.1-.2.1-.29,0l-3.85-3.84a.2.2,0,0,1,0-.31L794.21,29,777.9,12.67,773.58,17c-.1.1-.2.11-.29,0l-3.84-3.85a.18.18,0,0,1,0-.29l7.81-7.81a.16.16,0,0,1,.26,0l9.81,9.8,3-3c.1-.1.2-.11.29,0l3.86,3.87c.09.09.09.18,0,.29l-3,3,10.34,10.34C801.91,29.46,801.92,29.54,801.84,29.62Z"/></g><g class="cls-1"><path class="cls-2" d="M780.4,28.61l-7.81,7.81a.16.16,0,0,1-.26,0L762,26.06l-3,3c-.1.1-.2.11-.29,0l-3.86-3.87c-.1-.09-.09-.18,0-.29l3-3L748,12.12c-.09-.09-.1-.18,0-.26l7.82-7.81a.18.18,0,0,1,.29,0L760,7.88a.18.18,0,0,1,0,.29l-4.32,4.31,16.3,16.31,4.32-4.32a.19.19,0,0,1,.31,0l3.84,3.84C780.51,28.41,780.5,28.51,780.4,28.61Z"/></g><g class="cls-1"><path class="cls-2" d="M899.54,29.82l-7.81,7.81c-.1.1-.2.11-.29,0l-3.85-3.85a.2.2,0,0,1,0-.31l4.32-4.31L875.6,12.87l-4.32,4.32a.18.18,0,0,1-.29,0l-3.84-3.84a.18.18,0,0,1,0-.29L875,5.25c.08-.08.17-.07.26,0l9.81,9.81,3-3a.18.18,0,0,1,.29,0l3.86,3.86c.1.09.09.19,0,.29l-3,3,10.35,10.34A.16.16,0,0,1,899.54,29.82Z"/></g><g class="cls-1"><path class="cls-2" d="M878.1,28.8l-7.81,7.82c-.08.08-.17.07-.26,0L859.69,26.26l-3,3a.18.18,0,0,1-.29,0l-3.86-3.86a.18.18,0,0,1,0-.29l3-3-9.81-9.81c-.09-.09-.1-.18,0-.26l7.81-7.81c.1-.1.2-.11.29,0l3.84,3.84a.18.18,0,0,1,0,.29l-4.32,4.32L869.65,29,874,24.67a.2.2,0,0,1,.31,0l3.85,3.84A.18.18,0,0,1,878.1,28.8Z"/></g><g class="cls-1"><path class="cls-2" d="M992.66,30.63l-7.81,7.82a.18.18,0,0,1-.29,0l-3.85-3.84a.2.2,0,0,1,0-.31L985,30,968.72,13.68,964.4,18a.18.18,0,0,1-.29,0l-3.84-3.85a.18.18,0,0,1,0-.29l7.82-7.81c.08-.08.16-.08.26,0l9.8,9.8,3-3c.1-.1.2-.11.29,0l3.86,3.86a.18.18,0,0,1,0,.29l-3,3,10.34,10.34C992.74,30.47,992.74,30.55,992.66,30.63Z"/></g><g class="cls-1"><path class="cls-2" d="M971.22,29.62l-7.81,7.81a.16.16,0,0,1-.26,0L952.81,27.07l-3,3c-.1.1-.2.11-.29,0l-3.86-3.86a.18.18,0,0,1,0-.29l3-3-9.81-9.81c-.09-.09-.1-.18,0-.26l7.81-7.81A.18.18,0,0,1,947,5l3.84,3.84a.19.19,0,0,1,0,.3l-4.32,4.31L962.77,29.8l4.31-4.32a.2.2,0,0,1,.31,0l3.85,3.85C971.33,29.42,971.32,29.52,971.22,29.62Z"/></g><g class="cls-1"><path class="cls-2" d="M945.73,30.17,937.92,38c-.1.1-.2.11-.29,0l-3.85-3.85a.19.19,0,0,1,0-.3l4.32-4.32L921.79,13.22l-4.32,4.32c-.1.1-.19.11-.29,0l-3.84-3.84a.18.18,0,0,1,0-.29l7.82-7.81c.08-.08.16-.08.26,0l9.8,9.81,3-3a.18.18,0,0,1,.29,0l3.86,3.86a.18.18,0,0,1,0,.29l-3,3,10.34,10.34A.16.16,0,0,1,945.73,30.17Z"/></g><g class="cls-1"><path class="cls-2" d="M924.29,29.16,916.48,37a.16.16,0,0,1-.26,0L905.88,26.61l-3,3a.18.18,0,0,1-.29,0l-3.86-3.86a.18.18,0,0,1,0-.29l3-3-9.81-9.8c-.09-.1-.1-.18,0-.26l7.82-7.82a.18.18,0,0,1,.29,0l3.84,3.84a.18.18,0,0,1,0,.29L899.53,13l16.31,16.31L920.15,25a.2.2,0,0,1,.31,0l3.85,3.85C924.4,29,924.39,29.06,924.29,29.16Z"/></g><g class="cls-1"><path class="cls-2" d="M1041.49,29.8l-7.81,7.81a.18.18,0,0,1-.29,0l-3.84-3.84a.19.19,0,0,1,0-.31l4.32-4.32-16.3-16.3-4.32,4.31a.18.18,0,0,1-.29,0l-3.85-3.85c-.09-.09-.08-.18,0-.29l7.81-7.81c.08-.08.17-.07.26,0l9.81,9.81,3-3c.11-.1.2-.11.29,0l3.87,3.86c.09.09.08.19,0,.29l-3,3,10.35,10.35A.16.16,0,0,1,1041.49,29.8Z"/></g><g class="cls-1"><path class="cls-2" d="M1020.05,28.78l-7.81,7.81c-.08.09-.17.08-.26,0l-10.34-10.34-3,3c-.1.1-.2.11-.29,0l-3.86-3.86c-.09-.1-.09-.19,0-.3l3-3-9.81-9.81a.16.16,0,0,1,0-.26l7.81-7.81c.1-.1.2-.11.29,0l3.84,3.85c.1.09.09.19,0,.29l-4.32,4.32L1011.6,29l4.32-4.32a.18.18,0,0,1,.3,0l3.85,3.84A.18.18,0,0,1,1020.05,28.78Z"/></g><g class="cls-1"><path class="cls-2" d="M1134.61,30.61l-7.81,7.81c-.1.1-.2.11-.29,0l-3.84-3.85a.18.18,0,0,1,0-.3L1127,30l-16.31-16.31L1106.36,18c-.11.1-.2.11-.29,0l-3.85-3.84a.18.18,0,0,1,0-.29l7.81-7.81a.16.16,0,0,1,.26,0l9.81,9.81,3-3a.18.18,0,0,1,.29,0l3.87,3.86c.09.09.08.19,0,.29l-3,3,10.35,10.34A.16.16,0,0,1,1134.61,30.61Z"/></g><g class="cls-1"><path class="cls-2" d="M1113.17,29.6l-7.81,7.81c-.08.08-.17.07-.26,0l-10.34-10.34-3,3a.18.18,0,0,1-.29,0l-3.86-3.86a.18.18,0,0,1,0-.29l3-3-9.81-9.81a.16.16,0,0,1,0-.26L1088.61,5a.18.18,0,0,1,.29,0l3.84,3.84c.1.09.09.19,0,.29l-4.32,4.32,16.31,16.31,4.32-4.32a.19.19,0,0,1,.3,0l3.85,3.85C1113.28,29.4,1113.28,29.49,1113.17,29.6Z"/></g><g class="cls-1"><path class="cls-2" d="M1087.68,30.15,1079.87,38c-.1.1-.2.11-.29,0l-3.84-3.84a.19.19,0,0,1,0-.31l4.32-4.31L1063.74,13.2l-4.31,4.32c-.11.1-.2.1-.29,0l-3.85-3.84a.18.18,0,0,1,0-.29l7.81-7.82c.08-.08.17-.07.26,0l9.81,9.81,3-3a.18.18,0,0,1,.29,0l3.86,3.86c.1.09.09.19,0,.29l-3,3,10.35,10.34A.16.16,0,0,1,1087.68,30.15Z"/></g><g class="cls-1"><path class="cls-2" d="M1066.24,29.13,1058.43,37c-.08.08-.17.07-.26,0l-10.34-10.34-3,3a.18.18,0,0,1-.29,0l-3.86-3.86a.18.18,0,0,1,0-.29l3-3-9.81-9.81a.16.16,0,0,1,0-.26l7.81-7.81c.1-.1.2-.11.29,0l3.84,3.84c.1.09.09.19,0,.29L1041.48,13l16.31,16.31,4.32-4.32a.19.19,0,0,1,.3,0l3.85,3.84A.18.18,0,0,1,1066.24,29.13Z"/></g><g class="cls-1"><path class="cls-2" d="M1183.51,30.36l-7.81,7.82a.18.18,0,0,1-.29,0l-3.84-3.84a.19.19,0,0,1,0-.31l4.32-4.32-16.3-16.3-4.32,4.31c-.1.1-.2.11-.29,0l-3.85-3.85c-.09-.09-.08-.18,0-.29L1159,5.8c.08-.08.17-.07.26,0l9.81,9.81,3-3c.11-.1.2-.11.29,0l3.87,3.87c.09.09.08.18,0,.29l-3,3L1183.5,30.1C1183.59,30.2,1183.59,30.28,1183.51,30.36Z"/></g><g class="cls-1"><path class="cls-2" d="M1162.07,29.35l-7.81,7.81a.16.16,0,0,1-.26,0L1143.66,26.8l-3,3c-.1.1-.2.11-.29,0L1136.47,26c-.09-.09-.09-.18,0-.29l3-3-9.81-9.81a.16.16,0,0,1,0-.26l7.81-7.81c.1-.1.2-.11.29,0l3.84,3.85c.1.09.09.19,0,.29l-4.32,4.32,16.31,16.3,4.32-4.32a.18.18,0,0,1,.3,0l3.85,3.84A.18.18,0,0,1,1162.07,29.35Z"/></g><g class="cls-1"><path class="cls-2" d="M1276.63,31.18,1268.82,39c-.1.1-.2.11-.29,0l-3.84-3.85a.19.19,0,0,1,0-.31l4.32-4.31-16.31-16.31-4.31,4.32c-.11.1-.2.1-.29,0l-3.85-3.84a.18.18,0,0,1,0-.29l7.81-7.81c.08-.09.17-.08.26,0l9.81,9.81,3-3a.18.18,0,0,1,.29,0l3.86,3.86c.1.09.09.19,0,.29l-3,3,10.35,10.34A.16.16,0,0,1,1276.63,31.18Z"/></g><g class="cls-1"><path class="cls-2" d="M1255.19,30.17,1247.38,38c-.08.08-.17.07-.26,0l-10.34-10.34-3,3a.18.18,0,0,1-.29,0l-3.86-3.86a.18.18,0,0,1,0-.29l3-3-9.81-9.81a.16.16,0,0,1,0-.26l7.81-7.81a.18.18,0,0,1,.29,0l3.84,3.84c.1.09.09.19,0,.29L1230.43,14l16.31,16.31,4.32-4.32a.19.19,0,0,1,.3,0l3.85,3.85C1255.3,30,1255.29,30.06,1255.19,30.17Z"/></g><g class="cls-1"><path class="cls-2" d="M1229.7,30.72l-7.81,7.81c-.1.1-.2.11-.29,0l-3.84-3.84a.19.19,0,0,1,0-.31l4.32-4.32-16.31-16.3-4.31,4.32c-.11.1-.2.1-.29,0l-3.85-3.84a.18.18,0,0,1,0-.29l7.81-7.82c.08-.08.17-.07.26,0l9.81,9.81,3-3a.18.18,0,0,1,.29,0l3.86,3.86c.1.09.09.19,0,.29l-3,3,10.35,10.35A.16.16,0,0,1,1229.7,30.72Z"/></g><g class="cls-1"><path class="cls-2" d="M1208.26,29.7l-7.81,7.82c-.08.08-.17.07-.26,0l-10.34-10.34-3,3a.18.18,0,0,1-.29,0l-3.86-3.86a.18.18,0,0,1,0-.29l3-3-9.81-9.81a.16.16,0,0,1,0-.26l7.81-7.81c.1-.1.2-.11.29,0L1187.83,9c.1.09.09.19,0,.29l-4.32,4.32,16.31,16.3,4.32-4.31a.18.18,0,0,1,.3,0l3.85,3.84A.18.18,0,0,1,1208.26,29.7Z"/></g><g class="cls-1"><path class="cls-2" d="M1324,30.14,1316.18,38c-.1.1-.2.11-.29,0l-3.84-3.85a.19.19,0,0,1,0-.31l4.32-4.31-16.3-16.31-4.32,4.32a.18.18,0,0,1-.29,0l-3.85-3.84c-.09-.09-.08-.19,0-.29l7.81-7.82c.08-.08.17-.07.26,0l9.81,9.81,3-3a.19.19,0,0,1,.3,0l3.86,3.86c.09.09.08.19,0,.29l-3,3L1324,29.88A.16.16,0,0,1,1324,30.14Z"/></g><g class="cls-1"><path class="cls-2" d="M1302.55,29.12l-7.81,7.82c-.08.08-.17.07-.26,0l-10.34-10.34-3,3a.18.18,0,0,1-.29,0L1277,25.77a.18.18,0,0,1,0-.29l3-3-9.81-9.81a.16.16,0,0,1,0-.26L1278,4.56c.1-.1.2-.11.29,0l3.85,3.84c.09.09.08.19,0,.29L1277.79,13l16.31,16.31,4.32-4.32a.2.2,0,0,1,.31,0l3.84,3.84A.18.18,0,0,1,1302.55,29.12Z"/></g><g class="cls-1"><path class="cls-2" d="M1417.11,31l-7.81,7.82a.18.18,0,0,1-.29,0l-3.84-3.84a.19.19,0,0,1,0-.31l4.32-4.32L1393.18,14l-4.32,4.32c-.1.1-.2.11-.29,0l-3.85-3.85c-.09-.09-.08-.19,0-.29l7.81-7.81a.16.16,0,0,1,.26,0l9.81,9.8,3-3c.11-.1.2-.11.29,0l3.87,3.86a.18.18,0,0,1,0,.29l-3,3,10.35,10.34C1417.19,30.79,1417.19,30.87,1417.11,31Z"/></g><g class="cls-1"><path class="cls-2" d="M1395.67,29.94l-7.81,7.81a.16.16,0,0,1-.26,0l-10.34-10.35-3,3c-.1.1-.2.11-.29,0l-3.86-3.86a.18.18,0,0,1,0-.29l3-3-9.81-9.81a.16.16,0,0,1,0-.26l7.81-7.81a.18.18,0,0,1,.29,0l3.84,3.85c.1.09.09.18,0,.29l-4.32,4.31,16.31,16.31,4.32-4.32a.18.18,0,0,1,.3,0l3.85,3.84A.18.18,0,0,1,1395.67,29.94Z"/></g><g class="cls-1"><path class="cls-2" d="M1370.18,30.49l-7.81,7.81a.18.18,0,0,1-.29,0l-3.84-3.85a.18.18,0,0,1,0-.3l4.32-4.32-16.31-16.31-4.31,4.32c-.11.1-.2.11-.29,0L1337.79,14a.18.18,0,0,1,0-.29l7.81-7.81a.16.16,0,0,1,.26,0l9.81,9.81,3-3a.18.18,0,0,1,.29,0l3.86,3.86c.1.09.09.19,0,.29l-3,3,10.35,10.34A.16.16,0,0,1,1370.18,30.49Z"/></g><g class="cls-1"><path class="cls-2" d="M1348.74,29.48l-7.81,7.81a.16.16,0,0,1-.26,0l-10.34-10.34-3,3a.18.18,0,0,1-.29,0l-3.86-3.86a.18.18,0,0,1,0-.29l3-3-9.81-9.8c-.09-.1-.09-.18,0-.26l7.81-7.82a.18.18,0,0,1,.29,0l3.84,3.84c.1.09.09.19,0,.29L1324,13.35l16.31,16.31,4.32-4.32a.19.19,0,0,1,.3,0l3.85,3.85C1348.85,29.28,1348.84,29.38,1348.74,29.48Z"/></g><g class="cls-1"><path class="cls-2" d="M1463.48,29.68l-7.81,7.81c-.1.1-.2.11-.29,0l-3.84-3.84a.19.19,0,0,1,0-.31l4.32-4.32-16.31-16.3L1435.23,17c-.11.11-.2.11-.29,0l-3.85-3.84c-.09-.1-.09-.19,0-.3l7.81-7.81c.08-.08.17-.07.26,0l9.81,9.81,3-3c.1-.1.2-.11.29,0l3.86,3.86c.1.09.09.19,0,.29l-3,3,10.35,10.35A.16.16,0,0,1,1463.48,29.68Z"/></g><g class="cls-1"><path class="cls-2" d="M1442,28.66l-7.81,7.81c-.08.09-.17.08-.26,0l-10.34-10.34-3,3c-.1.1-.2.11-.29,0l-3.86-3.86a.18.18,0,0,1,0-.29l3-3-9.81-9.81a.16.16,0,0,1,0-.26l7.81-7.81c.1-.1.2-.11.29,0l3.84,3.85c.1.09.09.19,0,.29l-4.32,4.32,16.31,16.3,4.32-4.31a.18.18,0,0,1,.3,0l3.85,3.84C1442.15,28.46,1442.14,28.56,1442,28.66Z"/></g><g class="cls-1"><path class="cls-2" d="M1556.6,30.49l-7.81,7.81a.18.18,0,0,1-.29,0l-3.85-3.85a.19.19,0,0,1,0-.3l4.32-4.32-16.31-16.31-4.31,4.32c-.11.1-.2.11-.3,0L1524.21,14a.18.18,0,0,1,0-.29L1532,5.93a.16.16,0,0,1,.26,0l9.81,9.81,3-3a.18.18,0,0,1,.29,0l3.86,3.86c.1.09.09.19,0,.29l-3,3,10.35,10.34A.16.16,0,0,1,1556.6,30.49Z"/></g><g class="cls-1"><path class="cls-2" d="M1535.16,29.48l-7.81,7.81a.16.16,0,0,1-.26,0l-10.34-10.34-3,3a.18.18,0,0,1-.29,0l-3.86-3.86a.18.18,0,0,1,0-.29l3-3L1502.8,13c-.09-.1-.1-.18,0-.26l7.81-7.82a.18.18,0,0,1,.29,0l3.84,3.84a.18.18,0,0,1,0,.29l-4.32,4.32,16.31,16.31,4.31-4.32a.2.2,0,0,1,.31,0l3.85,3.85C1535.27,29.28,1535.26,29.38,1535.16,29.48Z"/></g><g class="cls-1"><path class="cls-2" d="M1509.67,30l-7.81,7.81c-.1.1-.2.11-.29,0L1497.72,34a.2.2,0,0,1,0-.31l4.32-4.31-16.31-16.31-4.32,4.32a.18.18,0,0,1-.29,0l-3.84-3.84a.18.18,0,0,1,0-.29l7.82-7.81c.08-.09.17-.08.26,0l9.8,9.81,3-3a.18.18,0,0,1,.29,0l3.86,3.86c.1.09.09.19,0,.29l-3,3,10.34,10.34A.16.16,0,0,1,1509.67,30Z"/></g><g class="cls-1"><path class="cls-2" d="M1488.23,29l-7.81,7.81c-.08.08-.17.07-.26,0l-10.34-10.34-3,3a.18.18,0,0,1-.29,0l-3.86-3.86a.18.18,0,0,1,0-.29l3-3-9.81-9.81c-.09-.09-.1-.18,0-.26l7.81-7.81a.18.18,0,0,1,.29,0l3.84,3.84a.18.18,0,0,1,0,.29l-4.32,4.32,16.31,16.31,4.31-4.32a.2.2,0,0,1,.31,0l3.85,3.84C1488.34,28.82,1488.33,28.91,1488.23,29Z"/></g><g class="cls-1"><path class="cls-2" d="M1601.32,28.37l-7.81,7.81c-.11.11-.2.11-.29,0l-3.85-3.84a.2.2,0,0,1,0-.31l4.32-4.32-16.31-16.31-4.32,4.32c-.1.1-.2.11-.29,0l-3.84-3.85a.18.18,0,0,1,0-.29l7.81-7.81a.16.16,0,0,1,.26,0l9.81,9.81,3-3c.1-.1.2-.11.29,0l3.86,3.86a.18.18,0,0,1,0,.29l-3,3,10.34,10.34C1601.39,28.2,1601.4,28.29,1601.32,28.37Z"/></g><g class="cls-1"><path class="cls-2" d="M1579.88,27.36l-7.81,7.81a.16.16,0,0,1-.26,0l-10.35-10.34-3,3c-.1.1-.2.11-.29,0L1554.28,24a.18.18,0,0,1,0-.29l3-3-9.81-9.81c-.09-.09-.1-.18,0-.26l7.82-7.81a.18.18,0,0,1,.29,0l3.84,3.84a.18.18,0,0,1,0,.29l-4.32,4.32,16.3,16.31,4.32-4.32a.2.2,0,0,1,.31,0l3.84,3.85C1580,27.16,1580,27.26,1579.88,27.36Z"/></g><g class="cls-1"><path class="cls-2" d="M1694.44,29.19,1686.63,37c-.11.1-.2.11-.29,0l-3.85-3.84a.2.2,0,0,1,0-.31l4.32-4.32-16.31-16.3-4.32,4.32a.18.18,0,0,1-.29,0l-3.84-3.84a.18.18,0,0,1,0-.29l7.81-7.82c.09-.08.17-.07.26,0l9.81,9.81,3-3a.18.18,0,0,1,.29,0l3.86,3.86a.18.18,0,0,1,0,.29l-3,3,10.34,10.35C1694.51,29,1694.52,29.11,1694.44,29.19Z"/></g><g class="cls-1"><path class="cls-2" d="M1673,28.17,1665.19,36c-.08.08-.17.07-.26,0l-10.35-10.34-3,3a.18.18,0,0,1-.29,0l-3.86-3.86c-.1-.1-.09-.19,0-.29l3-3-9.81-9.81c-.09-.09-.1-.18,0-.26l7.81-7.81c.11-.1.2-.11.3,0l3.84,3.84a.18.18,0,0,1,0,.29l-4.31,4.32,16.3,16.3,4.32-4.31a.19.19,0,0,1,.31,0l3.84,3.84C1673.11,28,1673.1,28.07,1673,28.17Z"/></g><g class="cls-1"><path class="cls-2" d="M1647.51,28.73l-7.81,7.81a.19.19,0,0,1-.3,0l-3.84-3.84a.2.2,0,0,1,0-.31l4.32-4.32-16.31-16.3-4.32,4.31a.18.18,0,0,1-.29,0l-3.84-3.85c-.09-.09-.09-.18,0-.29l7.81-7.81c.08-.08.17-.07.26,0L1633,14l3-3c.1-.1.2-.11.29,0l3.86,3.87c.09.09.09.18,0,.29l-3,3,10.34,10.35C1647.58,28.56,1647.59,28.64,1647.51,28.73Z"/></g><g class="cls-1"><path class="cls-2" d="M1626.07,27.71l-7.81,7.81a.16.16,0,0,1-.26,0l-10.35-10.35-3,3c-.1.1-.2.11-.29,0l-3.86-3.87c-.1-.09-.09-.18,0-.29l3-3-9.81-9.81c-.09-.09-.1-.18,0-.26l7.81-7.81c.11-.1.2-.11.29,0L1605.64,7a.18.18,0,0,1,0,.29l-4.31,4.32,16.3,16.3,4.32-4.32a.19.19,0,0,1,.31,0l3.84,3.84A.18.18,0,0,1,1626.07,27.71Z"/></g><g class="cls-1"><path class="cls-2" d="M1738.5,27.1l-7.81,7.82a.18.18,0,0,1-.29,0l-3.84-3.84a.19.19,0,0,1,0-.31l4.32-4.32-16.31-16.31-4.31,4.32c-.11.1-.2.11-.29,0l-3.85-3.85a.18.18,0,0,1,0-.29l7.81-7.81a.16.16,0,0,1,.26,0l9.81,9.8,3-3c.1-.1.2-.11.29,0l3.86,3.86c.1.1.09.19,0,.29l-3,3,10.35,10.34C1738.58,26.94,1738.58,27,1738.5,27.1Z"/></g><g class="cls-1"><path class="cls-2" d="M1717.06,26.09l-7.81,7.81a.16.16,0,0,1-.26,0l-10.34-10.35-3,3c-.1.1-.2.11-.29,0l-3.86-3.86a.18.18,0,0,1,0-.29l3-3L1684.7,9.6a.16.16,0,0,1,0-.26l7.81-7.81a.18.18,0,0,1,.29,0l3.84,3.85c.1.09.09.18,0,.29L1692.3,10l16.31,16.31,4.32-4.32a.18.18,0,0,1,.3,0l3.85,3.84C1717.17,25.89,1717.16,26,1717.06,26.09Z"/></g><g class="cls-1"><path class="cls-2" d="M1831.62,27.92l-7.81,7.81c-.1.1-.2.11-.29,0l-3.85-3.84a.2.2,0,0,1,0-.31l4.32-4.31L1807.68,11l-4.31,4.32a.19.19,0,0,1-.3,0l-3.84-3.84a.18.18,0,0,1,0-.29l7.81-7.82c.08-.08.17-.07.26,0l9.81,9.81,3-3a.18.18,0,0,1,.29,0l3.86,3.86c.1.09.09.19,0,.29l-3,3,10.35,10.34A.16.16,0,0,1,1831.62,27.92Z"/></g><g class="cls-1"><path class="cls-2" d="M1810.18,26.9l-7.81,7.82c-.08.08-.17.07-.26,0l-10.34-10.34-3,3a.18.18,0,0,1-.29,0l-3.86-3.86a.18.18,0,0,1,0-.29l3-3-9.81-9.81c-.09-.09-.1-.18,0-.26l7.81-7.81c.1-.1.2-.11.29,0l3.84,3.84a.18.18,0,0,1,0,.29l-4.32,4.32,16.31,16.31,4.31-4.32a.2.2,0,0,1,.31,0l3.85,3.84A.18.18,0,0,1,1810.18,26.9Z"/></g><g class="cls-1"><path class="cls-2" d="M1784.69,27.46l-7.81,7.81a.18.18,0,0,1-.29,0l-3.85-3.84a.2.2,0,0,1,0-.31l4.32-4.32-16.31-16.3-4.32,4.31a.18.18,0,0,1-.29,0L1752.3,11c-.09-.09-.09-.18,0-.29l7.82-7.81c.08-.08.16-.07.26,0l9.8,9.81,3-3c.1-.1.2-.11.29,0l3.86,3.86a.18.18,0,0,1,0,.29l-3,3,10.34,10.35A.16.16,0,0,1,1784.69,27.46Z"/></g><g class="cls-1"><path class="cls-2" d="M1763.25,26.44l-7.81,7.81c-.08.09-.17.08-.26,0L1744.84,23.9l-3,3c-.1.1-.2.11-.29,0l-3.86-3.86a.19.19,0,0,1,0-.3l3-3L1730.89,10c-.09-.09-.1-.18,0-.26l7.81-7.81c.1-.1.2-.11.29,0l3.84,3.85a.18.18,0,0,1,0,.29l-4.32,4.32,16.31,16.3,4.31-4.31a.19.19,0,0,1,.31,0l3.85,3.84C1763.36,26.24,1763.35,26.34,1763.25,26.44Z"/></g><g class="cls-1"><path class="cls-2" d="M1880.45,27.08l-7.81,7.81c-.1.1-.2.11-.29,0l-3.84-3.85a.18.18,0,0,1,0-.3l4.31-4.32-16.3-16.31-4.32,4.32c-.1.1-.2.11-.29,0l-3.85-3.84c-.09-.09-.08-.19,0-.29l7.81-7.81a.16.16,0,0,1,.26,0l9.81,9.81,3-3a.19.19,0,0,1,.3,0l3.86,3.86c.09.09.08.19,0,.29l-3,3,10.34,10.34C1880.53,26.91,1880.54,27,1880.45,27.08Z"/></g><g class="cls-1"><path class="cls-2" d="M1859,26.07l-7.82,7.81c-.08.08-.16.07-.26,0L1840.6,23.52l-3,3a.18.18,0,0,1-.29,0l-3.86-3.86c-.09-.09-.08-.19,0-.29l3-3-9.8-9.81c-.1-.09-.1-.17,0-.25l7.81-7.82a.18.18,0,0,1,.29,0l3.85,3.84c.09.09.08.19,0,.29l-4.32,4.32,16.31,16.31,4.32-4.32a.2.2,0,0,1,.31,0l3.84,3.85A.18.18,0,0,1,1859,26.07Z"/></g><g class="cls-1"><path class="cls-2" d="M1973.57,27.9l-7.81,7.81a.18.18,0,0,1-.29,0l-3.84-3.84a.19.19,0,0,1,0-.31l4.32-4.32L1949.64,11l-4.32,4.31a.18.18,0,0,1-.29,0l-3.85-3.85c-.09-.09-.08-.18,0-.29L1949,3.33c.08-.08.17-.07.26,0l9.81,9.81,3-3c.11-.1.2-.11.29,0l3.87,3.87c.09.09.08.19,0,.29l-3,3,10.35,10.35A.16.16,0,0,1,1973.57,27.9Z"/></g><g class="cls-1"><path class="cls-2" d="M1952.13,26.88l-7.81,7.81a.16.16,0,0,1-.26,0l-10.34-10.34-3,3a.18.18,0,0,1-.29,0l-3.86-3.87c-.09-.09-.09-.18,0-.29l3-3-9.81-9.81a.16.16,0,0,1,0-.26l7.81-7.81c.1-.1.2-.11.29,0l3.85,3.85c.09.09.08.19,0,.29l-4.32,4.32,16.31,16.3,4.32-4.32a.18.18,0,0,1,.3,0l3.85,3.84A.18.18,0,0,1,1952.13,26.88Z"/></g><g class="cls-1"><path class="cls-2" d="M1926.64,27.43l-7.81,7.82a.18.18,0,0,1-.29,0l-3.84-3.84a.19.19,0,0,1,0-.31l4.32-4.32L1902.7,10.48l-4.31,4.32c-.11.1-.2.11-.29,0L1894.25,11c-.09-.09-.08-.19,0-.29l7.81-7.81a.16.16,0,0,1,.26,0l9.81,9.8,3-3c.1-.1.2-.11.29,0l3.87,3.86a.18.18,0,0,1,0,.29l-3,3,10.35,10.34C1926.72,27.27,1926.72,27.35,1926.64,27.43Z"/></g><g class="cls-1"><path class="cls-2" d="M1905.2,26.42l-7.81,7.81a.16.16,0,0,1-.26,0l-10.34-10.35-3,3c-.1.1-.2.11-.29,0l-3.86-3.86a.18.18,0,0,1,0-.29l3-3-9.81-9.81a.16.16,0,0,1,0-.26l7.81-7.81a.18.18,0,0,1,.29,0l3.84,3.84c.1.1.09.19,0,.3l-4.32,4.31,16.31,16.31,4.32-4.32a.19.19,0,0,1,.3,0l3.85,3.85A.18.18,0,0,1,1905.2,26.42Z"/></g><g class="cls-1"><path class="cls-2" d="M2022.47,27.65l-7.81,7.81c-.1.1-.2.11-.29,0l-3.84-3.85a.19.19,0,0,1,0-.31l4.32-4.31-16.3-16.31L1994.22,15a.18.18,0,0,1-.29,0l-3.85-3.84c-.09-.09-.08-.19,0-.29l7.81-7.81a.16.16,0,0,1,.26,0l9.81,9.81,3-3a.19.19,0,0,1,.3,0l3.86,3.86c.09.09.08.19,0,.29l-3,3,10.34,10.34C2022.55,27.48,2022.56,27.57,2022.47,27.65Z"/></g><g class="cls-1"><path class="cls-2" d="M2001,26.64l-7.81,7.81c-.08.08-.17.07-.26,0l-10.34-10.34-3,3a.18.18,0,0,1-.29,0l-3.86-3.86a.18.18,0,0,1,0-.29l3-3-9.81-9.81a.16.16,0,0,1,0-.26l7.81-7.81a.18.18,0,0,1,.29,0l3.85,3.84c.09.09.08.19,0,.29l-4.32,4.32,16.31,16.31,4.32-4.32a.2.2,0,0,1,.31,0l3.84,3.85C2001.14,26.44,2001.14,26.53,2001,26.64Z"/></g><g class="cls-1"><path class="cls-2" d="M2115.59,28.46l-7.81,7.82a.18.18,0,0,1-.29,0l-3.84-3.84a.19.19,0,0,1,0-.31l4.32-4.32-16.3-16.31-4.32,4.32c-.1.1-.2.11-.29,0L2083.2,12c-.09-.09-.08-.19,0-.29L2091,3.9c.08-.08.17-.07.26,0l9.81,9.8,3-3c.11-.1.2-.11.29,0l3.87,3.87c.09.09.08.18,0,.29l-3,3,10.35,10.34C2115.67,28.3,2115.67,28.38,2115.59,28.46Z"/></g><g class="cls-1"><path class="cls-2" d="M2094.15,27.45l-7.81,7.81a.16.16,0,0,1-.26,0L2075.74,24.9l-3,3c-.1.1-.2.11-.29,0l-3.86-3.87c-.09-.09-.09-.18,0-.29l3-3L2061.79,11a.16.16,0,0,1,0-.26l7.81-7.81c.1-.1.2-.11.29,0l3.84,3.85c.1.09.09.19,0,.29l-4.32,4.31,16.31,16.31,4.32-4.32a.18.18,0,0,1,.3,0l3.85,3.84A.18.18,0,0,1,2094.15,27.45Z"/></g><g class="cls-1"><path class="cls-2" d="M2068.66,28l-7.81,7.81a.18.18,0,0,1-.29,0L2056.72,32a.19.19,0,0,1,0-.31l4.32-4.32-16.31-16.31-4.31,4.32c-.11.1-.2.11-.29,0l-3.85-3.85a.18.18,0,0,1,0-.29l7.81-7.81a.16.16,0,0,1,.26,0l9.81,9.81,3-3c.1-.1.2-.11.29,0l3.87,3.86a.18.18,0,0,1,0,.29l-3,3,10.35,10.34A.16.16,0,0,1,2068.66,28Z"/></g><g class="cls-1"><path class="cls-2" d="M2047.22,27l-7.81,7.81a.16.16,0,0,1-.26,0l-10.34-10.34-3,3c-.1.1-.2.11-.29,0l-3.86-3.86a.18.18,0,0,1,0-.29l3-3-9.81-9.8a.16.16,0,0,1,0-.26l7.81-7.82a.18.18,0,0,1,.29,0l3.84,3.84c.1.1.09.19,0,.29l-4.32,4.32,16.31,16.31,4.32-4.32a.19.19,0,0,1,.3,0l3.85,3.85A.18.18,0,0,1,2047.22,27Z"/></g><g class="cls-1"><path class="cls-2" d="M2163,27.42l-7.81,7.82a.18.18,0,0,1-.29,0L2151,31.41a.19.19,0,0,1,0-.31l4.31-4.32L2139,10.47l-4.32,4.32c-.1.1-.2.11-.29,0L2130.56,11c-.09-.09-.08-.19,0-.29l7.81-7.81a.16.16,0,0,1,.26,0l9.81,9.8,3-3a.18.18,0,0,1,.29,0l3.86,3.86a.18.18,0,0,1,0,.29l-3,3,10.34,10.34C2163,27.26,2163,27.34,2163,27.42Z"/></g><g class="cls-1"><path class="cls-2" d="M2141.52,26.41l-7.82,7.81c-.08.08-.16.08-.26,0L2123.1,23.86l-3,3c-.1.1-.19.11-.29,0l-3.86-3.86c-.09-.09-.08-.19,0-.29l3-3-9.8-9.81a.16.16,0,0,1,0-.26L2117,1.85a.18.18,0,0,1,.29,0l3.85,3.85c.09.09.08.18,0,.29l-4.32,4.31,16.31,16.31,4.32-4.32a.19.19,0,0,1,.31,0l3.84,3.84A.18.18,0,0,1,2141.52,26.41Z"/></g><g class="cls-1"><path class="cls-2" d="M2256.07,28.24l-7.81,7.81c-.1.1-.2.11-.29,0l-3.84-3.85a.19.19,0,0,1,0-.31l4.32-4.31-16.3-16.31-4.32,4.32a.18.18,0,0,1-.29,0l-3.85-3.84c-.09-.09-.08-.19,0-.29l7.81-7.82c.08-.08.17-.07.26,0l9.81,9.81,3-3a.19.19,0,0,1,.3,0l3.86,3.86c.09.09.08.19,0,.29l-3,3L2256.06,28C2256.15,28.07,2256.16,28.16,2256.07,28.24Z"/></g><g class="cls-1"><path class="cls-2" d="M2234.63,27.22,2226.82,35c-.08.08-.17.07-.26,0l-10.34-10.34-3,3a.18.18,0,0,1-.29,0L2209,23.87a.18.18,0,0,1,0-.29l3-3-9.81-9.81a.16.16,0,0,1,0-.26l7.81-7.81c.1-.1.2-.11.29,0l3.85,3.84c.09.09.08.19,0,.29l-4.32,4.32,16.31,16.31,4.32-4.32a.2.2,0,0,1,.31,0l3.84,3.84A.18.18,0,0,1,2234.63,27.22Z"/></g><g class="cls-1"><path class="cls-2" d="M2209.14,27.78l-7.81,7.81a.18.18,0,0,1-.29,0l-3.84-3.84a.19.19,0,0,1,0-.31l4.32-4.32-16.3-16.3-4.32,4.31a.18.18,0,0,1-.29,0l-3.85-3.85c-.09-.09-.08-.18,0-.29l7.81-7.81c.08-.08.17-.07.26,0l9.81,9.81,3-3c.11-.1.2-.11.29,0l3.87,3.86c.09.09.08.19,0,.29l-3,3,10.35,10.35A.16.16,0,0,1,2209.14,27.78Z"/></g><g class="cls-1"><path class="cls-2" d="M2187.7,26.76l-7.81,7.81c-.08.09-.17.08-.26,0l-10.34-10.34-3,3c-.1.1-.2.11-.29,0l-3.86-3.86a.18.18,0,0,1,0-.29l3-3-9.81-9.81a.16.16,0,0,1,0-.26l7.81-7.81c.1-.1.2-.11.29,0L2167.27,6c.1.09.09.19,0,.29l-4.32,4.32,16.31,16.3,4.32-4.31a.18.18,0,0,1,.3,0l3.85,3.84A.18.18,0,0,1,2187.7,26.76Z"/></g><g class="cls-1"><path class="cls-2" d="M2302.44,27l-7.81,7.81a.18.18,0,0,1-.29,0l-3.84-3.85a.18.18,0,0,1,0-.3l4.32-4.32L2278.5,10l-4.31,4.32c-.11.1-.2.11-.29,0l-3.85-3.84c-.09-.09-.08-.19,0-.29l7.81-7.81a.16.16,0,0,1,.26,0l9.81,9.81,3-3a.18.18,0,0,1,.29,0l3.87,3.86c.09.09.08.19,0,.29l-3,3,10.35,10.34A.16.16,0,0,1,2302.44,27Z"/></g><g class="cls-1"><path class="cls-2" d="M2281,26l-7.81,7.81a.16.16,0,0,1-.26,0L2262.59,23.4l-3,3a.18.18,0,0,1-.29,0l-3.86-3.86a.18.18,0,0,1,0-.29l3-3-9.81-9.8c-.09-.1-.09-.18,0-.26l7.81-7.82a.18.18,0,0,1,.29,0l3.84,3.84c.1.1.09.19,0,.29l-4.32,4.32,16.31,16.31,4.32-4.32a.19.19,0,0,1,.3,0l3.85,3.85A.18.18,0,0,1,2281,26Z"/></g><g class="cls-1"><path class="cls-2" d="M2395.56,27.78l-7.81,7.81a.18.18,0,0,1-.29,0l-3.84-3.84a.19.19,0,0,1,0-.31l4.32-4.32-16.31-16.3-4.31,4.31c-.11.11-.2.11-.29,0l-3.85-3.85c-.09-.09-.09-.18,0-.29L2371,3.21c.08-.08.17-.07.26,0l9.81,9.81,3-3c.1-.1.2-.11.29,0l3.86,3.86c.1.09.09.19,0,.29l-3,3,10.35,10.35A.16.16,0,0,1,2395.56,27.78Z"/></g><g class="cls-1"><path class="cls-2" d="M2374.12,26.76l-7.81,7.81c-.08.09-.17.08-.26,0l-10.34-10.34-3,3c-.1.1-.2.11-.29,0l-3.86-3.86a.18.18,0,0,1,0-.29l3-3-9.81-9.81a.16.16,0,0,1,0-.26l7.81-7.81c.1-.1.2-.11.29,0L2353.69,6c.1.09.09.19,0,.29l-4.32,4.32,16.31,16.3,4.32-4.31a.18.18,0,0,1,.3,0l3.85,3.84C2374.23,26.56,2374.22,26.66,2374.12,26.76Z"/></g><g class="cls-1"><path class="cls-2" d="M2348.63,27.31l-7.81,7.82a.18.18,0,0,1-.29,0l-3.85-3.84a.2.2,0,0,1,0-.31l4.32-4.32-16.31-16.31-4.31,4.32c-.11.1-.2.11-.3,0l-3.84-3.85a.18.18,0,0,1,0-.29l7.81-7.81a.16.16,0,0,1,.26,0l9.81,9.8,3-3c.1-.1.2-.11.29,0l3.86,3.86c.1.1.09.19,0,.3l-3,3,10.35,10.34C2348.71,27.15,2348.71,27.23,2348.63,27.31Z"/></g><g class="cls-1"><path class="cls-2" d="M2327.19,26.3l-7.81,7.81a.16.16,0,0,1-.26,0l-10.34-10.35-3,3c-.1.1-.2.11-.29,0l-3.86-3.86a.18.18,0,0,1,0-.29l3-3-9.81-9.81a.16.16,0,0,1,0-.26l7.81-7.81a.18.18,0,0,1,.29,0l3.84,3.85c.1.09.09.18,0,.29l-4.32,4.31,16.31,16.31,4.32-4.32a.18.18,0,0,1,.3,0l3.85,3.84C2327.3,26.1,2327.29,26.2,2327.19,26.3Z"/></g><g class="cls-1"><path class="cls-2" d="M2440.28,25.66l-7.81,7.81c-.1.1-.2.11-.29,0l-3.85-3.84a.2.2,0,0,1,0-.31l4.32-4.32-16.31-16.3L2412,13a.18.18,0,0,1-.29,0l-3.84-3.84a.18.18,0,0,1,0-.29l7.82-7.82c.08-.08.16-.07.26,0l9.8,9.81,3-3a.18.18,0,0,1,.29,0l3.86,3.86a.18.18,0,0,1,0,.29l-3,3,10.34,10.34A.16.16,0,0,1,2440.28,25.66Z"/></g><g class="cls-1"><path class="cls-2" d="M2418.84,24.64,2411,32.46c-.08.08-.17.07-.26,0L2400.43,22.1l-3,3a.18.18,0,0,1-.29,0l-3.86-3.86a.18.18,0,0,1,0-.29l3-3-9.81-9.81c-.09-.09-.1-.18,0-.26l7.82-7.81c.1-.1.2-.11.29,0l3.84,3.84a.18.18,0,0,1,0,.29l-4.32,4.32,16.31,16.3,4.31-4.31a.2.2,0,0,1,.31,0l3.84,3.84C2419,24.45,2418.94,24.54,2418.84,24.64Z"/></g><g class="cls-1"><path class="cls-2" d="M2533.4,26.47l-7.81,7.81c-.11.11-.2.11-.29,0l-3.85-3.84a.2.2,0,0,1,0-.31l4.32-4.32L2509.46,9.52l-4.32,4.32c-.1.1-.2.11-.29,0L2501,10a.18.18,0,0,1,0-.29l7.81-7.81a.16.16,0,0,1,.26,0l9.81,9.81,3-3c.1-.1.2-.11.29,0l3.86,3.86a.18.18,0,0,1,0,.29l-3,3,10.34,10.34C2533.47,26.3,2533.48,26.39,2533.4,26.47Z"/></g><g class="cls-1"><path class="cls-2" d="M2512,25.46l-7.81,7.81a.16.16,0,0,1-.26,0l-10.35-10.34-3,3a.18.18,0,0,1-.29,0l-3.86-3.86a.18.18,0,0,1,0-.29l3-3L2479.6,9c-.09-.1-.1-.18,0-.26L2487.4.89a.18.18,0,0,1,.29,0l3.84,3.84a.18.18,0,0,1,0,.29l-4.32,4.32,16.3,16.31,4.32-4.32a.2.2,0,0,1,.31,0l3.84,3.85C2512.07,25.26,2512.06,25.36,2512,25.46Z"/></g><g class="cls-1"><path class="cls-2" d="M2486.47,26l-7.81,7.81c-.11.1-.2.11-.29,0L2474.52,30a.19.19,0,0,1,0-.3l4.32-4.32L2462.53,9.06l-4.32,4.32a.18.18,0,0,1-.29,0l-3.84-3.84a.18.18,0,0,1,0-.29l7.81-7.81a.16.16,0,0,1,.26,0l9.81,9.81,3-3a.18.18,0,0,1,.29,0l3.86,3.86a.18.18,0,0,1,0,.29l-3,3,10.34,10.34C2486.54,25.84,2486.55,25.93,2486.47,26Z"/></g><g class="cls-1"><path class="cls-2" d="M2465,25l-7.81,7.81c-.08.08-.17.07-.26,0l-10.35-10.34-3,3a.18.18,0,0,1-.29,0l-3.86-3.86c-.1-.09-.09-.19,0-.29l3-3-9.81-9.81c-.09-.09-.1-.17,0-.26l7.82-7.81a.18.18,0,0,1,.29,0l3.84,3.84a.18.18,0,0,1,0,.29l-4.31,4.32,16.3,16.31,4.32-4.32a.2.2,0,0,1,.31,0l3.84,3.85C2465.14,24.8,2465.13,24.89,2465,25Z"/></g></g></g></svg>