<svg xmlns="http://www.w3.org/2000/svg" viewBox="0 0 32.95 24.47"><defs><style>.cls-1{fill:#3d3b38;}</style></defs><g id="Warstwa_2" data-name="Warstwa 2"><g id="Warstwa_1-2" data-name="Warstwa 1"><path class="cls-1" d="M29.22,24.47H20.43c-.11,0-.17,0-.17-.14V20.5c0-.1.06-.15.17-.15h4.86V4.1H20.43c-.11,0-.17,0-.17-.13V.14c0-.09.06-.14.17-.14h8.79a.13.13,0,0,1,.14.14V9.91h3.42c.11,0,.17,0,.17.14v3.84c0,.09-.06.14-.17.14H29.36v10.3A.12.12,0,0,1,29.22,24.47Z"/><path class="cls-1" d="M12.52,24.47H3.73c-.1,0-.14,0-.14-.14V14H.17C.06,14,0,14,0,13.89V10.05c0-.1.06-.14.17-.14H3.59V.14A.12.12,0,0,1,3.73,0h8.79c.11,0,.17.05.17.14V4c0,.09-.06.13-.17.13H7.66V20.35h4.86c.11,0,.17,0,.17.15v3.83C12.69,24.43,12.63,24.47,12.52,24.47Z"/></g></g></svg>