<svg xmlns="http://www.w3.org/2000/svg" viewBox="0 0 294.14 73.35"><defs><style>.cls-1{fill:#3d3b38;}.cls-2{fill:#f7ba0f;}</style></defs><g id="Warstwa_2" data-name="Warstwa 2"><g id="Warstwa_1-2" data-name="Warstwa 1"><path class="cls-1" d="M99.73,6.84V.53h18.55V6.84h-5.57v28h-7.42v-28Z"/><path class="cls-1" d="M129.09,21.36V34.82h-7.42V.53h7.42V14.89H135V.53h7.42V34.82H135V21.36Z"/><path class="cls-1" d="M155.11.53V34.82h-7.42V.53Z"/><path class="cls-1" d="M179.65,9.54H172.6V6.84a1.1,1.1,0,0,0-.29-.75.94.94,0,0,0-.72-.31h-2.91a1,1,0,0,0-.72.31,1.1,1.1,0,0,0-.29.75v6.09a1.08,1.08,0,0,0,.29.74.93.93,0,0,0,.72.32h4.77q6.57.11,6.57,7v7.36q0,7-6.57,7h-6.26q-6.57,0-6.57-7V24.8h7v3.82a1.08,1.08,0,0,0,.29.74,1,1,0,0,0,.72.32H172a.93.93,0,0,0,.72-.32,1.08,1.08,0,0,0,.29-.74V21.89a1.08,1.08,0,0,0-.29-.74.9.9,0,0,0-.72-.32h-4.77q-6.57,0-6.57-7V7q0-7,6.57-7h5.89q6.57,0,6.57,7Z"/><path class="cls-1" d="M185.37,31.53a3.83,3.83,0,0,1,6.52-2.7,3.82,3.82,0,1,1-6.52,2.7Z"/><path class="cls-2" d="M133.87,67.2V61.9h7v4.45q0,7-6.57,7h-6.68q-6.57,0-6.57-7V45q0-7,6.57-7h6.68q6.57,0,6.57,7v3.23h-7V44.09a1.1,1.1,0,0,0-.29-.74.93.93,0,0,0-.71-.32h-3.34a.93.93,0,0,0-.72.32,1.1,1.1,0,0,0-.29.74V67.2a1.06,1.06,0,0,0,.29.74.9.9,0,0,0,.72.32h3.34a.9.9,0,0,0,.71-.32A1.06,1.06,0,0,0,133.87,67.2Z"/><path class="cls-2" d="M157.62,38.53H165V66.35q0,7-6.58,7h-6.57q-6.57,0-6.57-7V38.53h7.42V67a1.08,1.08,0,0,0,.29.74,1,1,0,0,0,.72.32h2.86a.93.93,0,0,0,.71-.32,1,1,0,0,0,.3-.74Z"/><path class="cls-2" d="M177.54,58.78v14h-7.42V38.53h13.2q6.57,0,6.57,7v4c0,2.83-1,4.63-3,5.41q2.65.95,2.65,4.34V72.82H182.1v-13c0-.71-.33-1.06-1-1.06Zm0-15.21v10h3.93a.9.9,0,0,0,.71-.32,1.06,1.06,0,0,0,.29-.74v-7.9a1.08,1.08,0,0,0-.29-.74.92.92,0,0,0-.71-.31Z"/><path class="cls-2" d="M213.69,47.54h-7.05v-2.7a1.1,1.1,0,0,0-.29-.75.94.94,0,0,0-.72-.31h-2.91a.94.94,0,0,0-.72.31,1.1,1.1,0,0,0-.29.75v6.09a1.08,1.08,0,0,0,.29.74.92.92,0,0,0,.72.32h4.77q6.57.1,6.57,7v7.36q0,7-6.57,7h-6.26q-6.57,0-6.57-7V62.8h7.05v3.82a1.08,1.08,0,0,0,.29.74,1,1,0,0,0,.72.32H206a1,1,0,0,0,.72-.32,1.08,1.08,0,0,0,.29-.74V59.89a1.08,1.08,0,0,0-.29-.74.92.92,0,0,0-.72-.32h-4.77q-6.57,0-6.57-7V45q0-7,6.57-7h5.89q6.57,0,6.57,7Z"/><path class="cls-2" d="M226.36,38.53V72.82h-7.42V38.53Z"/><path class="cls-2" d="M245.7,38.53h7.16l-7.11,34.29h-8.53l-7.1-34.29h7.21l4.18,25Z"/><path class="cls-2" d="M263.93,66.67h8.22v6.15H256.51V38.53h15.64v6h-8.22v8.06h7.69v5.83h-7.69Z"/><path class="cls-1" d="M288.85,73.05h-12.5c-.17,0-.25-.06-.25-.19V67.42c0-.15.08-.22.25-.22h6.91V44.1h-6.91c-.17,0-.25-.06-.25-.2V38.46c0-.13.08-.2.25-.2h12.5c.13,0,.19.07.19.2V52.35h4.86c.16,0,.24.07.24.2V58c0,.13-.08.19-.24.19H289V72.86A.17.17,0,0,1,288.85,73.05Z"/><path class="cls-1" d="M118.1,73.05H105.6c-.13,0-.2-.06-.2-.19V58.21h-4.86c-.16,0-.24-.06-.24-.19V52.55c0-.13.08-.2.24-.2h4.86V38.46a.18.18,0,0,1,.2-.2h12.5c.16,0,.24.07.24.2V43.9c0,.14-.08.2-.24.2h-6.91V67.2h6.91c.16,0,.24.07.24.22v5.44C118.34,73,118.26,73.05,118.1,73.05Z"/><path class="cls-1" d="M86,73H60.09c-.33,0-.5-.14-.5-.41V61.36c0-.3.17-.46.5-.46h14.3V13.12H60.09c-.33,0-.5-.13-.5-.4V1.45c0-.27.17-.4.5-.4H86a.35.35,0,0,1,.4.4V30.19h10c.34,0,.51.14.51.41V41.91c0,.27-.17.41-.51.41h-10v30.3A.36.36,0,0,1,86,73Z"/><path class="cls-1" d="M36.82,73H11a.36.36,0,0,1-.4-.41V42.32H.51c-.34,0-.51-.14-.51-.41V30.6c0-.27.17-.41.51-.41H10.56V1.45a.35.35,0,0,1,.4-.4H36.82c.34,0,.51.13.51.4V12.72c0,.27-.17.4-.51.4H22.53V60.9H36.82c.34,0,.51.16.51.46V72.62C37.33,72.89,37.16,73,36.82,73Z"/><polygon class="cls-2" points="44.85 73.04 31.66 73.04 53.64 1.04 66.83 1.04 44.85 73.04"/></g></g></svg>